<?xml version="1.0" encoding="UTF-8" standalone="no"?>
<svg
   id="svg1"
   width="960"
   height="242.991"
   version="1.1"
   viewBox="0 0 254.00157 64.292332"
   xml:space="preserve"
   sodipodi:docname="beebea_banner.svg"
   inkscape:version="1.4.2 (2aeb623e1d, 2025-05-12)"
   inkscape:export-filename="../103e98ae/app_banner_2025.webp"
   inkscape:export-xdpi="96"
   inkscape:export-ydpi="96"
   xmlns:inkscape="http://www.inkscape.org/namespaces/inkscape"
   xmlns:sodipodi="http://sodipodi.sourceforge.net/DTD/sodipodi-0.dtd"
   xmlns:xlink="http://www.w3.org/1999/xlink"
   xmlns="http://www.w3.org/2000/svg"
   xmlns:svg="http://www.w3.org/2000/svg"><defs
     id="defs1"><linearGradient
       id="linearGradient85"
       inkscape:collect="always"><stop
         style="stop-color:#ebeae6;stop-opacity:1;"
         offset="0.42523009"
         id="stop86" /><stop
         style="stop-color:#3d34b9;stop-opacity:0.36461326;"
         offset="1"
         id="stop85" /></linearGradient><linearGradient
       id="linearGradient8"><stop
         style="stop-color:#e9a4f3;stop-opacity:1;"
         offset="0.12919973"
         id="stop72" /><stop
         style="stop-color:#000ca4;stop-opacity:1;"
         offset="1"
         id="stop73" /></linearGradient><linearGradient
       id="linearGradient8-1"><stop
         style="stop-color:#e9a4f3;stop-opacity:1;"
         offset="0.19116926"
         id="stop8" /><stop
         style="stop-color:#000ca4;stop-opacity:1;"
         offset="0.81422645"
         id="stop9" /></linearGradient><linearGradient
       id="linearGradient3"
       inkscape:collect="always"><stop
         style="stop-color:#0010a8;stop-opacity:1;"
         offset="0"
         id="stop3" /><stop
         style="stop-color:#007aff;stop-opacity:1;"
         offset="1"
         id="stop4" /></linearGradient><radialGradient
       inkscape:collect="always"
       xlink:href="#linearGradient3"
       id="radialGradient4"
       cx="106.98984"
       cy="61.811554"
       fx="106.98984"
       fy="61.811554"
       r="25.590466"
       gradientTransform="matrix(6.1881105,0,0,3.9892393,-407.31435,-132.93297)"
       gradientUnits="userSpaceOnUse" /><radialGradient
       inkscape:collect="always"
       xlink:href="#linearGradient8"
       id="radialGradient9"
       cx="107.05613"
       cy="65.188187"
       fx="107.05613"
       fy="65.188187"
       r="3.0672071"
       gradientTransform="matrix(6.1881105,0,0,7.9947068,-407.31435,-386.61738)"
       gradientUnits="userSpaceOnUse" /><filter
       inkscape:label="Soft Focus Lens"
       inkscape:menu="Image Effects"
       inkscape:menu-tooltip="Glowing image content without blurring it"
       style="color-interpolation-filters:sRGB"
       id="filter36"
       x="-0.030405255"
       y="-0.046089565"
       width="1.0607734"
       height="1.0921254"><feGaussianBlur
         stdDeviation="0.64201586"
         result="result3"
         id="feGaussianBlur34" /><feColorMatrix
         values="1 0 0 0 0 0 1 0 0 0 0 0 1 0 0 0 0 0 50 0 "
         result="result7"
         id="feColorMatrix34" /><feComposite
         operator="in"
         in2="SourceGraphic"
         result="result9"
         id="feComposite34" /><feComposite
         in2="result7"
         operator="arithmetic"
         in="result9"
         k1="0.5"
         k3="0.5"
         result="result1"
         id="feComposite35"
         k2="0"
         k4="0" /><feBlend
         in2="result1"
         result="result5"
         mode="screen"
         in="SourceGraphic"
         id="feBlend35" /><feBlend
         in2="result5"
         mode="darken"
         in="result5"
         result="result6"
         id="feBlend36" /><feComposite
         in2="SourceGraphic"
         operator="in"
         result="result8"
         id="feComposite36" /></filter><filter
       inkscape:label="Blur"
       inkscape:menu="Image Effects"
       inkscape:menu-tooltip="Glowing image content without blurring it"
       style="color-interpolation-filters:sRGB"
       id="filter39"
       x="-0.7108987"
       y="-1.0776662"
       width="2.4217975"
       height="3.1553323"><feGaussianBlur
         stdDeviation="15.174351"
         result="result3"
         id="feGaussianBlur36" /><feColorMatrix
         values="1 0 0 0 0 0 1 0 0 0 0 0 1 0 0 0 0 0 50 0 "
         result="result7"
         id="feColorMatrix36" /><feComposite
         operator="in"
         in2="SourceGraphic"
         result="result9"
         id="feComposite37" /><feComposite
         in2="result7"
         operator="arithmetic"
         in="result9"
         k1="0.5"
         k3="0.5"
         result="result1"
         id="feComposite38"
         k2="0"
         k4="0" /><feBlend
         in2="result1"
         result="result5"
         mode="screen"
         in="SourceGraphic"
         id="feBlend38" /><feBlend
         in2="result5"
         mode="darken"
         in="result5"
         result="result6"
         id="feBlend39" /><feComposite
         in2="SourceGraphic"
         operator="in"
         result="fbSourceGraphic"
         id="feComposite39" /><feColorMatrix
         result="fbSourceGraphicAlpha"
         in="fbSourceGraphic"
         values="0 0 0 -1 0 0 0 0 -1 0 0 0 0 -1 0 0 0 0 1 0"
         id="feColorMatrix71" /><feGaussianBlur
         id="feGaussianBlur71"
         stdDeviation="0.5 0.5"
         result="blur"
         in="fbSourceGraphic" /></filter><linearGradient
       inkscape:collect="always"
       xlink:href="#linearGradient3"
       id="linearGradient80"
       x1="109.30924"
       y1="50.963123"
       x2="109.35937"
       y2="54.170677"
       gradientUnits="userSpaceOnUse"
       gradientTransform="matrix(6.1881105,0,0,6.1881105,-420.65877,-282.33313)" /><filter
       inkscape:collect="always"
       style="color-interpolation-filters:sRGB"
       id="filter80"
       x="-0.014005836"
       y="-0.021725862"
       width="1.0280117"
       height="1.0434517"><feGaussianBlur
         inkscape:collect="always"
         stdDeviation="0.29867989"
         id="feGaussianBlur80" /></filter><filter
       inkscape:collect="always"
       style="color-interpolation-filters:sRGB"
       id="filter81"
       x="-0.088113316"
       y="-0.067882722"
       width="1.1762266"
       height="1.1357654"><feGaussianBlur
         inkscape:collect="always"
         stdDeviation="0.22043407"
         id="feGaussianBlur81" /></filter><radialGradient
       inkscape:collect="always"
       xlink:href="#linearGradient85"
       id="radialGradient87"
       cx="107.09769"
       cy="54.065056"
       fx="107.09769"
       fy="54.065056"
       r="5.2935429"
       gradientTransform="matrix(10.873139,5.690691,-3.6412899,6.9573716,-725.54798,-933.36622)"
       gradientUnits="userSpaceOnUse"
       spreadMethod="pad" /><filter
       inkscape:label="Soft Focus Lens"
       inkscape:menu="Image Effects"
       inkscape:menu-tooltip="Glowing image content without blurring it"
       style="color-interpolation-filters:sRGB"
       id="filter40"
       x="-0.00128809"
       y="-0.0019502492"
       width="1.0025392"
       height="1.0038468"><feGaussianBlur
         stdDeviation="2.1956017e-05"
         result="result3"
         id="feGaussianBlur32" /><feColorMatrix
         values="1 0 0 0 0 0 1 0 0 0 0 0 1 0 0 0 0 0 50 0 "
         result="result7"
         id="feColorMatrix32" /><feComposite
         operator="in"
         in2="SourceGraphic"
         result="result9"
         id="feComposite32" /><feComposite
         in2="result7"
         operator="arithmetic"
         in="result9"
         k1="0.5"
         k3="0.5"
         result="result1"
         id="feComposite33"
         k2="0"
         k4="0" /><feBlend
         in2="result1"
         result="result5"
         mode="screen"
         in="SourceGraphic"
         id="feBlend33" /><feBlend
         in2="result5"
         mode="darken"
         in="result5"
         result="result6"
         id="feBlend34" /><feComposite
         in2="SourceGraphic"
         operator="in"
         result="result8"
         id="feComposite40" /></filter></defs><sodipodi:namedview
     id="namedview1"
     pagecolor="#626262"
     bordercolor="#000000"
     borderopacity="0.25"
     inkscape:showpageshadow="2"
     inkscape:pageopacity="0.0"
     inkscape:pagecheckerboard="0"
     inkscape:deskcolor="#d1d1d1"
     inkscape:zoom="0.485"
     inkscape:cx="352.57732"
     inkscape:cy="146.39175"
     inkscape:window-width="2560"
     inkscape:window-height="1016"
     inkscape:window-x="2560"
     inkscape:window-y="0"
     inkscape:window-maximized="1"
     inkscape:current-layer="layer1"
     showguides="false"
     showgrid="false" /><g
     id="layer1"
     transform="translate(-98.414965,-45.851313)"><g
       id="g1"
       transform="matrix(0.27252855,0,0,0.27252855,76.317817,46.925268)"><path
         id="logo_outline"
         d="m 109.59646,81.445099 c 0.15662,-0.07036 0.43946,-0.29342 0.60668,-0.47845 0.0812,-0.08986 0.2051,-0.16326 0.41136,-0.24372 0.16234,-0.06332 0.36746,-0.14748 0.45581,-0.18701 0.0884,-0.03954 0.19278,-0.08545 0.23206,-0.10204 1.5834,-0.66894 1.4073,-0.56797 1.9738,-1.1316 0.27185,-0.2705 0.91667,-0.90952 1.4329,-1.42 0.51626,-0.51052 0.96903,-0.97085 1.0062,-1.023 0.082,-0.11504 0.0847,-0.2 0.0123,-0.38101 -0.0918,-0.22938 -0.33757,-0.36839 -0.80157,-0.45331 -0.14726,-0.02695 -0.37217,-0.07253 -0.4998,-0.10129 -0.58162,-0.13105 -1.105,-0.24256 -1.2816,-0.27309 -0.224,-0.03871 -0.43185,-0.1018 -0.49186,-0.14929 -0.0314,-0.02481 -0.0205,-0.07583 0.0426,-0.20062 0.0919,-0.18188 0.20148,-0.27095 0.29624,-0.24088 0.0331,0.01051 0.18876,0.04376 0.34584,0.07389 0.2715,0.05207 0.46621,0.09149 1.0353,0.2096 0.54435,0.11298 0.82744,0.17399 0.96391,0.20775 0.0785,0.01943 0.28242,0.04339 0.45306,0.05325 0.27718,0.01602 0.32591,0.0091 0.45695,-0.06451 0.21762,-0.12231 0.31204,-0.31606 0.43143,-0.8853 0.0338,-0.1613 0.0955,-0.38493 0.21517,-0.78035 0.0373,-0.12313 0.0678,-0.24864 0.0678,-0.2789 0,-0.03025 0.0223,-0.13033 0.0495,-0.22238 0.0272,-0.09205 0.085,-0.30391 0.12836,-0.47081 0.0434,-0.1669 0.10037,-0.37575 0.12665,-0.46411 0.0548,-0.1845 0.14726,-0.53607 0.21586,-0.8211 0.12593,-0.52325 0.16228,-0.66462 0.18361,-0.71401 0.0127,-0.02946 0.0433,-0.14191 0.068,-0.2499 0.0247,-0.108 0.0792,-0.32416 0.12101,-0.48037 0.0872,-0.32559 0.0744,-0.4672 -0.0565,-0.62272 -0.14172,-0.16842 -0.35747,-0.232 -0.70422,-0.20753 -0.16176,0.01142 -0.40629,0.04452 -0.54344,0.07356 -0.13712,0.02906 -0.47424,0.09525 -0.74913,0.14713 -0.27489,0.05188 -0.5721,0.10888 -0.66045,0.12669 -0.1884,0.03796 -0.31235,-0.02732 -0.36783,-0.19378 -0.0595,-0.17847 0.003,-0.20439 0.83193,-0.34398 0.24543,-0.04135 0.5346,-0.09178 0.6426,-0.11208 0.108,-0.0203 0.32487,-0.05838 0.48196,-0.08462 0.15708,-0.02625 0.34698,-0.06572 0.422,-0.08774 0.19006,-0.05577 0.40807,-0.26241 0.45304,-0.4294 0.041,-0.15222 0.002,-0.39331 -0.079,-0.49201 -0.0272,-0.03296 -0.0863,-0.13221 -0.13153,-0.22057 -0.0452,-0.08836 -0.12627,-0.24098 -0.18014,-0.33915 -0.0539,-0.09817 -0.15679,-0.28923 -0.22869,-0.42455 -0.20236,-0.38085 -0.17214,-0.44245 0.12248,-0.24968 0.10617,0.06947 0.2304,0.14121 0.27607,0.15944 0.0456,0.01823 0.15007,0.07837 0.23205,0.13367 0.082,0.0553 0.37393,0.23284 0.64883,0.39453 0.27489,0.16169 0.52389,0.30818 0.55335,0.32552 0.0295,0.01735 0.16601,0.08552 0.30345,0.1515 0.13744,0.06599 0.36236,0.17848 0.4998,0.24999 0.39556,0.20579 1.1102,0.52681 1.1736,0.52716 0.0221,1.22e-4 0.0883,0.0255 0.14729,0.05642 0.21138,0.11092 0.93352,0.31514 1.428,0.40384 1.6841,0.3021 3.0102,-0.09421 4.2248,-1.2626 0.30094,-0.2895 0.80097,-0.90246 1.0333,-1.2667 0.0696,-0.10901 0.1692,-0.26246 0.22149,-0.341 0.1807,-0.27142 0.85501,-1.5829 0.90862,-1.7672 0.0142,-0.04909 0.08,-0.22581 0.14594,-0.3927 0.30516,-0.77177 0.50934,-1.3107 0.52751,-1.3923 0.0109,-0.04909 0.0433,-0.16154 0.072,-0.2499 0.0287,-0.08836 0.11208,-0.35343 0.18537,-0.58905 0.21428,-0.68901 0.29719,-0.92011 0.34622,-0.96501 0.0742,-0.06797 0.74476,-0.52413 1.2598,-0.85705 0.17672,-0.11422 0.40967,-0.26709 0.51766,-0.33972 0.10799,-0.07263 0.3811,-0.2535 0.6069,-0.40193 0.22581,-0.14843 0.51332,-0.34722 0.6389,-0.44175 0.12559,-0.09453 0.31837,-0.23382 0.4284,-0.30952 0.11004,-0.07571 0.30984,-0.24439 0.444,-0.37485 0.28089,-0.27314 0.77353,-0.84693 0.77353,-0.90096 0,-0.02012 0.0462,-0.09588 0.10272,-0.16836 0.15994,-0.20517 0.41971,-0.73831 0.56868,-1.1671 0.17966,-0.51714 0.23434,-0.9176 0.2315,-1.6958 -0.002,-0.40252 -0.0195,-0.80415 -0.04,-0.89251 -0.0896,-0.38585 -0.12457,-0.50384 -0.25943,-0.87466 -0.2241,-0.61618 -0.57482,-1.1986 -1.0222,-1.6976 -0.24384,-0.27193 -0.76792,-0.73424 -0.98242,-0.86665 -0.63451,-0.39166 -1.1869,-0.61617 -1.8932,-0.76941 -0.44353,-0.09623 -1.5749,-0.10954 -1.9095,-0.02246 -0.11261,0.02931 -0.47785,0.11825 -0.81165,0.19764 -0.62425,0.14848 -1.1914,0.30453 -2.0528,0.56483 -0.12764,0.03857 -0.35254,0.10475 -0.49981,0.14706 -0.14726,0.04232 -0.33201,0.09785 -0.41056,0.1234 -0.0785,0.02555 -0.27132,0.0827 -0.4284,0.127 -0.15708,0.04429 -0.43951,0.13484 -0.62763,0.20121 -0.18812,0.06637 -0.3568,0.12122 -0.37485,0.12188 -0.0181,6.79e-4 -0.0971,0.03225 -0.17563,0.07019 -0.0785,0.03793 -0.15851,0.06953 -0.1777,0.07019 -0.0192,6.79e-4 -0.17985,0.05872 -0.35701,0.12902 -0.17715,0.07029 -0.37833,0.14894 -0.44705,0.17476 -0.19985,0.07509 -0.55669,0.22856 -1.0174,0.43761 -0.23563,0.1069 -0.47661,0.21614 -0.53551,0.24276 -0.0589,0.02661 -0.23222,0.10552 -0.38513,0.17534 -0.15294,0.06982 -0.28631,0.12694 -0.29639,0.12694 -0.067,0 -1.6961,0.80893 -2.2281,1.1064 -0.14726,0.08235 -0.29988,0.16426 -0.33915,0.18204 -0.0393,0.01777 -0.0955,0.04758 -0.12496,0.06624 -0.0295,0.01866 -0.27846,0.16404 -0.55335,0.32307 -0.27489,0.15903 -0.59619,0.35142 -0.71401,0.42753 -0.82681,0.53419 -1.122,0.69039 -1.1872,0.62823 -0.005,-0.0047 0.0229,-0.21608 0.0621,-0.46964 0.16432,-1.0646 0.021,-2.4707 -0.33808,-3.317 -0.025,-0.0589 -0.0889,-0.21764 -0.14203,-0.35273 -0.34475,-0.87675 -1.1887,-1.9878 -1.9292,-2.5397 -0.0786,-0.05854 -0.18297,-0.1433 -0.23206,-0.18835 -0.0491,-0.04505 -0.17536,-0.13341 -0.28061,-0.19635 -0.10524,-0.06294 -0.24983,-0.14939 -0.3213,-0.19212 -0.22707,-0.13574 -0.76491,-0.39325 -0.98675,-0.47244 -0.11781,-0.04205 -0.24634,-0.09054 -0.2856,-0.10774 -0.0978,-0.04288 -0.58252,-0.16605 -0.92822,-0.2359 -0.354,-0.07153 -1.5776,-0.10871 -1.9278,-0.05857 -0.47089,0.06742 -0.92225,0.15294 -0.98535,0.18671 -0.0347,0.01858 -0.0906,0.03377 -0.12402,0.03377 -0.0335,0 -0.12693,0.03015 -0.20763,0.06701 -0.0807,0.03685 -0.2431,0.10263 -0.36091,0.14616 -0.82715,0.30564 -1.7038,0.89139 -2.3405,1.5638 -0.41447,0.43773 -0.51484,0.56068 -0.76434,0.93623 -0.2175,0.32737 -0.69722,1.2709 -0.69722,1.3713 0,0.03376 -0.0175,0.09408 -0.0389,0.13405 -0.0576,0.10759 -0.1929,0.60729 -0.26909,0.99366 -0.0982,0.49808 -0.0967,1.9104 0.002,2.3833 0.0862,0.41119 0.0628,0.452 -0.17613,0.30677 -0.0921,-0.05597 -0.23426,-0.13929 -0.31593,-0.18517 -0.0817,-0.04587 -0.25292,-0.15202 -0.38055,-0.23589 -0.41908,-0.27538 -0.62023,-0.40039 -0.96391,-0.59908 -0.36745,-0.21242 -0.949095,-0.53579 -1.035305,-0.57559 -0.0294,-0.01359 -0.2142,-0.11225 -0.410549,-0.21924 -0.38857,-0.21173 -0.75053,-0.39267 -1.249497,-0.62463 -0.17672,-0.08215 -0.43376,-0.20305 -0.57121,-0.26867 -0.13744,-0.06562 -0.35347,-0.16219 -0.48006,-0.21461 -0.12659,-0.05241 -0.3756,-0.16372 -0.55336,-0.24733 -0.17775,-0.08361 -0.44368,-0.20451 -0.59094,-0.26865 -0.14727,-0.06414 -0.28382,-0.12837 -0.30346,-0.14273 -0.01963,-0.01437 -0.25258,-0.10341 -0.51765,-0.19788 -0.26508,-0.09448 -0.49722,-0.1852 -0.51587,-0.20163 -0.01866,-0.01643 -0.05639,-0.02987 -0.08385,-0.02987 -0.02746,0 -0.10056,-0.02337 -0.16244,-0.05196 -0.06187,-0.02857 -0.17676,-0.07422 -0.2553,-0.10143 -0.38805,-0.13443 -0.6969,-0.23689 -0.87461,-0.29012 -0.35769,-0.10716 -0.65682,-0.19555 -0.96391,-0.28485 -0.1669,-0.04853 -0.47214,-0.13796 -0.67831,-0.19872 -0.20617,-0.06077 -0.48731,-0.1436 -0.62476,-0.18406 -0.13745,-0.04047 -0.3222,-0.09523 -0.41055,-0.1217 -0.31578,-0.09459 -0.69868,-0.18956 -0.84944,-0.2107 -0.08431,-0.01182 -0.1807,-0.03589 -0.2142,-0.05348 -0.09416,-0.04945 -0.67689,-0.17368 -0.93557,-0.19945 -0.55043,-0.05483 -1.3974,-0.0048 -1.8386,0.10856 -1.3647,0.35074 -2.499,1.1669 -3.2198,2.3167 -0.29075,0.46382 -0.60055,1.2428 -0.68982,1.7346 -0.02317,0.12763 -0.05569,0.30435 -0.07228,0.3927 -0.05159,0.2748 -0.03897,1.1223 0.0217,1.4573 0.13225,0.73043 0.37471,1.4062 0.67475,1.8807 0.34562,0.54655 0.37385,0.58272 0.83575,1.071 0.33756,0.35684 1.0365,0.89239 1.6774,1.2852 0.08177,0.05013 1.281,0.84142 1.647,1.0868 0.54105,0.36268 0.74323,0.50688 0.79558,0.56742 0.02825,0.03266 0.12792,0.31644 0.22149,0.6306 0.21531,0.72291 0.40218,1.2943 0.57206,1.7493 0.07331,0.19635 0.17719,0.47749 0.23085,0.62476 0.14157,0.38857 0.78879,1.7709 0.89426,1.91 0.01489,0.01965 0.05893,0.09193 0.09785,0.16065 0.79218,1.3987 1.8856,2.4807 2.9294,2.8986 0.63722,0.25516 0.78355,0.28321 1.5858,0.30403 0.66187,0.01718 0.77578,0.01139 1.071,-0.05446 0.1817,-0.04053 0.3866,-0.08342 0.45532,-0.09531 0.16868,-0.02921 0.90725,-0.26133 1.1067,-0.34783 0.0884,-0.03832 0.19278,-0.08357 0.23205,-0.10056 0.0393,-0.017 0.17583,-0.07259 0.30345,-0.12355 0.310887,-0.12414 0.330847,-0.13429 1.479996,-0.75308 0.925435,-0.4983 1.613805,-0.89074 1.845805,-1.0522 0.16268,-0.11325 0.18246,-0.01555 0.0511,0.25254 -0.1193,0.24356 -0.39421,0.76832 -0.53793,1.0268 -0.16675,0.29992 -0.1594,0.48376 0.0277,0.6941 0.14351,0.1613 0.37379,0.24089 1.0067,0.34792 0.25526,0.04316 0.54444,0.09369 0.64261,0.11227 0.0981,0.01857 0.32309,0.0561 0.49981,0.08337 0.32231,0.04972 0.49518,0.10006 0.57712,0.16806 0.0342,0.02839 0.027,0.07148 -0.0327,0.19429 -0.0838,0.17247 -0.14304,0.19128 -0.38398,0.1219 -0.0686,-0.01974 -0.26128,-0.06101 -0.42818,-0.09169 -0.16689,-0.03069 -0.47213,-0.08774 -0.67831,-0.12681 -1.0209,-0.19349 -1.2967,-0.16755 -1.5267,0.14359 -0.1079,0.14594 -0.10417,0.37562 0.0123,0.75606 0.0506,0.16545 0.14626,0.5177 0.2125,0.78277 0.0662,0.26508 0.17745,0.6908 0.24716,0.94606 0.0697,0.25526 0.15237,0.56853 0.18369,0.69616 0.0313,0.12763 0.0741,0.28828 0.0951,0.357 0.021,0.06872 0.0581,0.21331 0.0824,0.3213 0.0243,0.10799 0.1118,0.43733 0.19433,0.73186 0.0825,0.29453 0.17224,0.63636 0.19936,0.75963 0.0668,0.30348 0.14856,0.44937 0.31516,0.56211 0.2716,0.18379 0.44849,0.16861 1.9125,-0.16413 0.18653,-0.0424 0.4516,-0.09865 0.58905,-0.12503 0.40776,-0.07824 0.77204,-0.15653 0.7974,-0.17137 0.0619,-0.03621 0.18497,0.0601 0.2854,0.22332 0.13665,0.22208 0.11137,0.26007 -0.21411,0.32179 -0.12435,0.02358 -0.3064,0.06547 -0.40458,0.09307 -0.18396,0.05174 -0.52721,0.12753 -0.96391,0.21284 -0.47613,0.09301 -1.0165,0.22961 -1.1398,0.28816 -0.14559,0.06909 -0.29866,0.25659 -0.3276,0.40129 -0.0402,0.20103 0.0663,0.33944 0.84867,1.1029 0.41888,0.40874 0.85924,0.83969 0.9786,0.95766 0.82689,0.81727 1.2113,1.1684 1.3456,1.2292 0.083,0.03755 0.3277,0.14274 0.54369,0.23376 0.21599,0.09101 0.42483,0.17986 0.46411,0.19745 0.0994,0.04449 0.97234,0.40672 1.1246,0.46662 0.0688,0.02704 0.24067,0.15644 0.38208,0.28754 0.33127,0.30709 0.56214,0.42091 0.85731,0.42264 0.13469,9.41e-4 0.275,-0.02254 0.357,-0.05938 z"
         fill="#4f00ff"
         style="display:inline;fill:none;fill-opacity:1;stroke:#ffffff;stroke-width:0.132294;stroke-dasharray:none;stroke-opacity:0.415314;filter:url(#filter36)"
         transform="matrix(6.1881101,0,0,6.1881101,-420.65876,-282.33313)" /><path
         id="path80"
         d="m 119.54646,62.758099 c 1.2756,-0.06021 1.7936,-0.10774 2.8142,-0.25824 0.77104,-0.1137 1.0962,-0.17189 1.4157,-0.25335 0.15193,-0.03873 0.34656,-0.08222 0.43251,-0.09665 0.16974,-0.02852 1.3068,-0.38533 1.3631,-0.42777 0.019,-0.01431 0.0889,-0.04133 0.15538,-0.06003 0.24709,-0.06952 0.68099,-0.23327 0.92273,-0.34822 0.13716,-0.06523 0.25887,-0.1186 0.27045,-0.1186 0.0396,0 0.51567,-0.20638 1.1031,-0.47821 0.32285,-0.1494 0.77347,-0.35634 1.0014,-0.45987 0.22789,-0.10352 0.49206,-0.24361 0.58702,-0.31129 0.095,-0.06769 0.22259,-0.1514 0.28362,-0.18603 0.0611,-0.03463 0.19312,-0.1168 0.29352,-0.18261 0.33546,-0.21991 1.4063,-0.88475 1.4251,-0.88475 0.0102,0 0.1,-0.05468 0.19943,-0.12151 0.0995,-0.06683 0.30524,-0.20231 0.45717,-0.30107 0.95074,-0.618 1.5689,-1.2227 1.9059,-1.8642 0.0481,-0.09163 0.10684,-0.18882 0.13049,-0.21599 0.0236,-0.02717 0.052,-0.07904 0.0631,-0.11526 0.011,-0.03622 0.0614,-0.16959 0.11196,-0.29638 0.0506,-0.12678 0.11268,-0.31943 0.13808,-0.4281 0.0254,-0.10867 0.0623,-0.25686 0.082,-0.32931 0.0431,-0.15878 0.0466,-1.2964 0.005,-1.4819 -0.12956,-0.57074 -0.18172,-0.72425 -0.38478,-1.1324 -0.32743,-0.65818 -0.76569,-1.1591 -1.397,-1.5967 -0.36336,-0.25187 -0.37583,-0.25856 -0.96499,-0.51749 -0.0759,-0.03339 -0.32458,-0.10811 -0.55249,-0.16604 -0.39746,-0.10104 -0.44181,-0.10539 -1.0877,-0.10663 -0.59,-0.0011 -0.71394,0.0081 -1.0014,0.07512 -0.18042,0.04203 -0.377,0.09691 -0.43685,0.12196 -0.0599,0.02504 -0.14531,0.04619 -0.18992,0.04699 -0.0446,8.2e-4 -0.14326,0.02357 -0.21923,0.05061 -0.0759,0.02704 -0.20804,0.06282 -0.2935,0.07953 -0.27513,0.05376 -0.60264,0.13609 -0.6632,0.1667 -0.0324,0.01639 -0.12564,0.03855 -0.20719,0.04927 -0.0816,0.01071 -0.20265,0.03922 -0.26911,0.06335 -0.16764,0.06086 -0.54221,0.17261 -0.70787,0.2112 -0.44781,0.10429 -0.57546,0.13744 -0.6299,0.16357 -0.0334,0.01603 -0.17725,0.0627 -0.31969,0.10374 -0.28858,0.08312 -0.41237,0.12362 -0.69127,0.22609 -0.10482,0.03852 -0.21189,0.07003 -0.23793,0.07003 -0.026,0 -0.11897,0.03124 -0.20652,0.06941 -0.25427,0.11089 -0.35937,0.15305 -0.46993,0.18852 -0.057,0.01828 -0.25898,0.09502 -0.4489,0.17054 -0.18991,0.07553 -0.50845,0.20128 -0.70786,0.27947 -0.19941,0.07818 -0.40919,0.16567 -0.46617,0.19441 -0.057,0.02874 -0.1245,0.05233 -0.15006,0.05245 -0.0255,1.09e-4 -0.0877,0.02116 -0.13811,0.04678 -0.0895,0.04547 -0.59311,0.26991 -0.83406,0.3717 -0.0664,0.02807 -0.1597,0.07008 -0.20718,0.09334 -0.60364,0.29567 -0.94052,0.46498 -1.2431,0.62478 -0.19942,0.10531 -0.45579,0.23854 -0.56975,0.29607 -0.11395,0.05753 -0.32373,0.16428 -0.46615,0.23722 -0.14245,0.07294 -0.39883,0.20268 -0.56976,0.28829 -0.17092,0.08561 -0.41598,0.22469 -0.54457,0.30906 -0.2293,0.15044 -0.29801,0.19129 -0.63498,0.37745 -0.0919,0.05078 -0.19044,0.10586 -0.21892,0.12241 -0.0285,0.01655 -0.13726,0.0772 -0.24172,0.1348 -0.34496,0.19022 -0.6469,0.42928 -0.92064,0.72893 -0.14857,0.16263 -0.30131,0.34515 -0.33945,0.4056 -0.0382,0.06045 -0.15663,0.23288 -0.26334,0.38318 -0.2886,0.4065 -0.52635,0.83152 -0.7792,1.3929 -0.26985,0.59922 -0.33993,0.80296 -0.49418,1.437 -0.0955,0.39246 -0.0973,1.104 -0.004,1.4165 0.18166,0.6058 0.49638,0.97089 1.0639,1.2342 0.18025,0.08361 0.43881,0.17949 0.57457,0.21306 1.1434,0.2827 2.236,0.34325 4.3732,0.24238 z m -10.463,17.706 c -0.0369,-0.0147 -0.13501,-0.09114 -0.21817,-0.16987 -0.20563,-0.19464 -0.32953,-0.28496 -0.44,-0.32075 -0.0511,-0.01659 -0.16665,-0.06385 -0.25665,-0.10505 -0.09,-0.04119 -0.23727,-0.10309 -0.32726,-0.13755 -0.09,-0.03446 -0.21272,-0.08343 -0.27271,-0.10882 -0.06,-0.0254 -0.26607,-0.1126 -0.45793,-0.19377 l -0.34884,-0.14759 -0.96839,-0.95452 c -0.80779,-0.79621 -0.9693,-0.96794 -0.97385,-1.0355 -0.005,-0.07182 0.007,-0.08513 0.10363,-0.118 0.06,-0.02036 0.19499,-0.05461 0.29998,-0.07607 0.105,-0.02147 0.30136,-0.06399 0.43635,-0.0945 0.13501,-0.0305 0.32523,-0.07271 0.42272,-0.09375 0.0975,-0.02103 0.28772,-0.06373 0.42271,-0.09485 0.35237,-0.08122 0.87758,-0.17191 1.4226,-0.24564 0.63561,-0.08598 2.0024,-0.09401 2.4773,-0.01455 0.11999,0.02008 0.32248,0.04428 0.44998,0.05378 0.12749,0.0095 0.26862,0.02872 0.31363,0.04268 0.045,0.01397 0.16158,0.03764 0.25908,0.05259 0.0975,0.01495 0.22636,0.03932 0.28635,0.05414 0.06,0.01483 0.23181,0.05231 0.38181,0.0833 0.15,0.03101 0.32795,0.07004 0.39545,0.08677 0.0674,0.01675 0.20249,0.04673 0.29998,0.06666 0.0975,0.01992 0.24477,0.05003 0.32727,0.06687 0.27601,0.05636 0.53149,0.14618 0.53948,0.18969 0.0101,0.05433 -1.9459,1.9755 -2.0854,2.0484 -0.0573,0.02991 -0.23576,0.10852 -0.3968,0.17474 -0.16103,0.06621 -0.31443,0.13256 -0.34089,0.14745 -0.0265,0.01489 -0.12789,0.05898 -0.22539,0.09799 -0.0975,0.03901 -0.23249,0.09566 -0.29998,0.12587 -0.0674,0.03022 -0.14728,0.06512 -0.17727,0.07757 -0.3016,0.1252 -0.38988,0.17919 -0.55736,0.34088 -0.21965,0.21206 -0.34054,0.26159 -0.4914,0.20136 z m -5.958,-5.5859 c -0.0862,-0.03117 -0.1157,-0.0922 -0.22627,-0.46824 -0.045,-0.15326 -0.10175,-0.34465 -0.12595,-0.42531 -0.0723,-0.24074 -0.17748,-0.60514 -0.22446,-0.77729 -0.0242,-0.08873 -0.0593,-0.20092 -0.0778,-0.24932 -0.0186,-0.04839 -0.0485,-0.14739 -0.0662,-0.21999 -0.0179,-0.0726 -0.0635,-0.23759 -0.10141,-0.36665 -0.038,-0.12906 -0.0826,-0.29163 -0.0992,-0.36128 -0.0166,-0.06964 -0.0386,-0.13882 -0.0489,-0.15374 -0.0268,-0.03899 -0.24433,-0.80277 -0.28623,-1.0049 -0.0374,-0.18016 -0.009,-0.27458 0.0801,-0.26405 0.0244,0.0028 0.21304,0.03364 0.4192,0.06834 0.20615,0.03469 0.46058,0.07394 0.56541,0.08721 0.10482,0.01327 0.28816,0.04438 0.40742,0.06912 0.31286,0.06493 0.95263,0.16669 1.048,0.16668 0.0448,-2e-6 0.15348,0.01966 0.24148,0.04368 0.088,0.02402 0.22101,0.04369 0.29558,0.04369 0.0745,0 0.2079,0.01913 0.2963,0.04255 0.0883,0.0234 0.28266,0.05613 0.43168,0.07274 0.14902,0.0166 0.28611,0.03863 0.30467,0.04895 0.0186,0.01032 0.26329,0.03739 0.54388,0.06016 0.2806,0.02276 0.64217,0.05755 0.80351,0.07729 0.32509,0.03978 0.21532,-0.01929 1.1493,0.61856 0.13873,0.09475 0.30358,0.2026 0.36632,0.23967 0.0627,0.03706 0.15669,0.10144 0.20878,0.14304 0.1568,0.12525 0.2328,0.10348 0.65973,-0.18903 0.21249,-0.14557 0.55752,-0.38106 0.76675,-0.5233 l 0.38043,-0.25862 0.33663,-0.04968 c 0.18514,-0.02732 0.5018,-0.06173 0.70367,-0.07647 0.20187,-0.01474 0.37787,-0.03282 0.39112,-0.04018 0.0132,-0.0074 0.19274,-0.02829 0.39889,-0.04653 0.47091,-0.04165 0.87782,-0.1039 1.5482,-0.23685 0.0897,-0.01777 0.28764,-0.05001 0.44002,-0.07164 0.15237,-0.02162 0.34305,-0.05346 0.42371,-0.07076 0.0807,-0.01731 0.33001,-0.05934 0.55408,-0.09343 0.22408,-0.0341 0.50414,-0.08108 0.62235,-0.10439 0.24281,-0.04789 0.32338,-0.03343 0.32171,0.05774 -0.002,0.08203 -0.11879,0.53503 -0.20994,0.81082 -0.024,0.0726 -0.0528,0.17819 -0.064,0.23466 -0.0112,0.05646 -0.0416,0.16866 -0.0675,0.24932 -0.0259,0.08066 -0.0771,0.24566 -0.11371,0.36665 -0.0366,0.121 -0.0868,0.28599 -0.11171,0.36665 -0.0411,0.13333 -0.0931,0.31539 -0.23464,0.82129 -0.0866,0.30966 -0.17862,0.61338 -0.21318,0.70396 -0.0185,0.04839 -0.0556,0.18039 -0.0825,0.29332 -0.098,0.41128 -0.18097,0.42674 -1.1832,0.22065 -0.61471,-0.12641 -0.88876,-0.17665 -0.9636,-0.17665 -0.0432,0 -0.18515,-0.02488 -0.31532,-0.0553 -0.47757,-0.11159 -1.212,-0.23072 -1.6545,-0.26835 -0.20616,-0.01754 -0.42617,-0.04451 -0.48891,-0.05994 -0.18946,-0.0466 -2.0869,-0.09274 -2.4251,-0.05897 -0.16303,0.0163 -0.48711,0.03807 -0.72015,0.04842 -0.23304,0.01034 -0.62905,0.05126 -0.88001,0.09091 -0.25098,0.03965 -0.60298,0.09041 -0.78225,0.1128 -0.33525,0.04187 -0.56626,0.08204 -1.0756,0.187 -0.16134,0.03325 -0.52801,0.10154 -0.81484,0.15175 -0.28682,0.05021 -0.61786,0.11658 -0.73566,0.14748 -0.24129,0.0633 -0.21753,0.06136 -0.31595,0.02578 z m 1.7148,-6.3138 c -0.0673,-0.01624 -0.26406,-0.0554 -0.43719,-0.08698 -0.17311,-0.03159 -0.37771,-0.0692 -0.45466,-0.08358 -0.43158,-0.08067 -1.2305,-0.21977 -1.5,-0.26116 -0.48769,-0.07491 -0.68281,-0.14084 -0.72258,-0.24417 -0.0268,-0.06972 -0.0193,-0.10611 0.0364,-0.17604 0.0386,-0.04848 0.0702,-0.10011 0.0702,-0.11472 0,-0.01462 0.0573,-0.12524 0.12731,-0.24582 0.29409,-0.50649 0.46726,-0.87621 0.46726,-0.99761 0,-0.20145 -0.1665,-0.4247 -0.37168,-0.49834 -0.2742,-0.09842 -0.43693,-0.10444 -0.59274,-0.02193 -0.0749,0.03967 -0.14979,0.07214 -0.16634,0.07214 -0.0166,0 -0.0719,0.02938 -0.12293,0.06526 -0.24331,0.17102 -2.233004,1.2957 -2.461004,1.391 -0.10177,0.04257 -0.24012,0.11161 -0.30744,0.15342 -0.0673,0.0418 -0.18537,0.09517 -0.26231,0.11856 -0.0769,0.0234 -0.163927,0.06315 -0.193307,0.08837 -0.0294,0.02519 -0.22494,0.10254 -0.43461,0.17184 -0.20966,0.06931 -0.42958,0.14665 -0.4887,0.17187 -0.41997,0.17918 -1.0581,0.29718 -1.7163,0.31737 -0.51687,0.01584 -0.5863,0.01045 -0.90934,-0.07065 -0.59055,-0.14828 -0.70966,-0.19204 -1.0813,-0.39726 -0.3277,-0.18098 -0.53789,-0.34634 -0.9078,-0.71417 -0.43101,-0.42859 -1.037,-1.2523 -1.3598,-1.8484 -0.06689,-0.12352 -0.15516,-0.28322 -0.19616,-0.35489 -0.04099,-0.07168 -0.17099,-0.35153 -0.28888,-0.62189 -0.11788,-0.27037 -0.24199,-0.55377 -0.2758,-0.62978 -0.0338,-0.07601 -0.07326,-0.17707 -0.08768,-0.22458 -0.01442,-0.04751 -0.06874,-0.17188 -0.12071,-0.2764 -0.05197,-0.10451 -0.15348,-0.37659 -0.22557,-0.60462 -0.07209,-0.22803 -0.14711,-0.45346 -0.16672,-0.50097 -0.01961,-0.04751 -0.07421,-0.21753 -0.12135,-0.37783 -0.09726,-0.33076 -0.09763,-0.49646 -0.0011,-0.51453 0.035,-0.0066 0.2396,0.07336 0.45467,0.17759 0.21507,0.10422 0.50122,0.23927 0.63587,0.30012 0.13465,0.06084 0.38647,0.17677 0.5596,0.25762 0.17312,0.08084 0.4092,0.18248 0.52462,0.22585 0.43642,0.16398 0.56164,0.2122 0.62954,0.24244 0.14372,0.064 0.35416,0.14552 0.48965,0.18968 0.07695,0.02507 0.22646,0.07951 0.33226,0.12097 0.31538,0.12357 0.64801,0.22278 1.2241,0.36509 0.1058,0.02614 0.27892,0.06925 0.38472,0.0958 0.34807,0.08736 1.0433,0.21416 1.4515,0.26474 0.70599,0.08749 1.1828,0.13677 1.5206,0.15718 0.20156,0.01219 0.445507,0.03681 0.542107,0.05473 0.27109,0.0503 2.999004,0.09589 3.669904,0.06134 0.55079,-0.02836 0.77241,-0.05876 1.4022,-0.19225 1.0985,-0.23285 1.8675,-0.71771 2.1869,-1.3787 0.20916,-0.43293 0.24166,-0.55167 0.286,-1.0454 0.0321,-0.3567 0.0318,-0.53533 -0.001,-0.79464 -0.0444,-0.35219 -0.1242,-0.74784 -0.18592,-0.92186 -0.0202,-0.057 -0.0825,-0.25135 -0.13838,-0.43187 -0.0559,-0.18052 -0.11608,-0.35932 -0.13376,-0.39732 -0.0177,-0.038 -0.11416,-0.2479 -0.2144,-0.46642 -0.10026,-0.21853 -0.27711,-0.56834 -0.39304,-0.77737 -0.2081,-0.3752 -0.27635,-0.48204 -0.71448,-1.1186 -0.39311,-0.57113 -0.52017,-0.84623 -0.67216,-1.4553 -0.0542,-0.21708 -0.13201,-0.75649 -0.15953,-1.1056 -0.0348,-0.4422 0.1104,-1.5048 0.26687,-1.9521 0.02,-0.05701 0.0496,-0.15677 0.0658,-0.22169 0.0162,-0.06492 0.0542,-0.16987 0.0843,-0.23321 0.0302,-0.06334 0.0769,-0.1657 0.10385,-0.22745 0.1236,-0.28319 0.38665,-0.77913 0.47161,-0.88912 0.0516,-0.06681 0.14048,-0.19055 0.19754,-0.27498 0.23199,-0.34329 1.3421,-1.3839 1.4763,-1.3839 0.0186,0 0.10298,-0.05172 0.1875,-0.11495 0.0845,-0.06321 0.23238,-0.15057 0.32855,-0.19411 0.0962,-0.04354 0.19848,-0.09297 0.22734,-0.10984 0.0289,-0.01687 0.076,-0.04022 0.10492,-0.05189 0.0289,-0.01167 0.11542,-0.04775 0.19237,-0.08019 0.0769,-0.03243 0.25793,-0.09459 0.4022,-0.1381 0.14427,-0.04351 0.30953,-0.09988 0.36724,-0.12524 0.0577,-0.02537 0.19936,-0.05586 0.31477,-0.06779 0.11542,-0.01192 0.32329,-0.04375 0.46194,-0.07075 0.28962,-0.05638 1.169,-0.06393 1.4092,-0.01211 0.0865,0.01868 0.2773,0.04897 0.42386,0.06729 0.14656,0.01834 0.31182,0.0567 0.36723,0.08525 0.0554,0.02856 0.13193,0.052 0.17004,0.05213 0.0645,1.97e-4 0.28846,0.07763 0.57776,0.19975 0.22595,0.09538 0.43676,0.19046 0.48964,0.22085 0.0289,0.01658 0.0997,0.05338 0.15738,0.08178 0.12019,0.05914 0.17616,0.09328 0.40887,0.24928 0.0921,0.06176 0.18262,0.11229 0.2011,0.11229 0.0185,0 0.0461,0.02025 0.0616,0.04498 0.0153,0.02474 0.0986,0.09859 0.18505,0.16411 0.25954,0.19682 0.55524,0.48386 0.78121,0.7583 0.11734,0.14252 0.22234,0.2669 0.23331,0.2764 0.0218,0.01881 0.27201,0.38928 0.33844,0.50097 0.0461,0.07737 0.33232,0.64887 0.4346,0.86753 0.0366,0.07809 0.0664,0.174 0.0664,0.21314 0,0.03914 0.0222,0.11517 0.0494,0.16896 0.0763,0.15123 0.19642,0.56971 0.19653,0.68516 6e-5,0.05701 0.0234,0.24358 0.0518,0.4146 0.10158,0.61074 0.0608,1.351 -0.11221,2.0384 -0.17956,0.71331 -0.28196,0.90827 -0.97999,1.8657 -0.0831,0.11401 -0.16984,0.24616 -0.19271,0.29367 -0.0229,0.04751 -0.10973,0.20423 -0.19302,0.34828 -0.15754,0.27249 -0.51342,1.0091 -0.57455,1.1892 -0.0194,0.05701 -0.0562,0.15029 -0.082,0.2073 -0.0688,0.15238 -0.19231,0.56908 -0.35346,1.192 -0.0378,0.14613 -0.0639,0.42804 -0.0748,0.80705 -0.0149,0.521 -0.008,0.61763 0.0629,0.91557 0.11368,0.47553 0.30453,0.82453 0.62811,1.1486 0.14427,0.14447 0.30337,0.28439 0.35355,0.31095 0.4536,0.23999 0.73854,0.3765 0.78588,0.3765 0.0311,0 0.10622,0.02165 0.16684,0.04813 0.11535,0.05038 0.54429,0.14837 1.107,0.25292 0.29287,0.05441 0.55402,0.06173 2.2034,0.06173 1.3497,0 1.9394,-0.01209 2.116,-0.04344 0.13465,-0.02388 0.46517,-0.05832 0.73447,-0.07652 0.47749,-0.03225 0.92106,-0.07649 1.3815,-0.13777 0.2035,-0.02708 0.49239,-0.07828 1.2766,-0.22624 0.13467,-0.02541 0.36287,-0.0797 0.50714,-0.12065 0.14428,-0.04096 0.34101,-0.09484 0.43719,-0.11976 0.4956,-0.12841 0.73625,-0.20758 1.2592,-0.41426 0.31461,-0.12433 0.58892,-0.22606 0.60958,-0.22606 0.0207,0 0.0963,-0.03109 0.16808,-0.0691 0.0718,-0.038 0.14914,-0.0691 0.17191,-0.0691 0.0393,0 0.31578,-0.12361 1.0613,-0.47453 0.72081,-0.33927 1.1749,-0.52945 1.2416,-0.52002 0.0581,0.0082 0.0695,0.03499 0.0669,0.15712 -0.002,0.08097 -0.02,0.18204 -0.0407,0.22457 -0.0207,0.04253 -0.10956,0.295 -0.19745,0.56103 -0.0878,0.26604 -0.20047,0.59253 -0.2502,0.72555 -0.0498,0.13302 -0.10292,0.28072 -0.11823,0.32822 -0.0153,0.04751 -0.0871,0.21853 -0.15957,0.38005 -0.20348,0.45359 -0.22758,0.5099 -0.22758,0.53186 0,0.01124 -0.0953,0.21101 -0.21178,0.44392 -0.37336,0.74654 -0.65285,1.2238 -0.9508,1.6237 -0.63427,0.85114 -1.1881,1.3482 -1.8993,1.7046 -0.41327,0.20712 -0.59888,0.27389 -0.97772,0.35169 -0.54855,0.11266 -1.8918,0.0583 -2.1734,-0.08795 -0.0357,-0.01858 -0.13555,-0.04532 -0.22175,-0.05945 -0.26043,-0.04265 -1.0577,-0.34658 -1.2947,-0.49353 -0.0673,-0.04176 -0.1355,-0.07597 -0.15152,-0.07603 -0.0546,-2.43e-4 -0.49502,-0.20249 -0.75782,-0.34803 -0.14427,-0.0799 -0.33313,-0.18362 -0.41969,-0.23049 -0.3109,-0.1683 -0.64895,-0.3674 -0.75196,-0.44286 -0.0578,-0.04228 -0.24657,-0.14996 -0.4197,-0.23931 -0.17311,-0.08935 -0.33838,-0.18238 -0.36723,-0.20674 -0.0289,-0.02437 -0.16107,-0.10064 -0.29381,-0.16952 -0.20968,-0.1088 -0.27301,-0.12523 -0.48264,-0.12523 -0.14326,0 -0.28145,0.02053 -0.34014,0.0505 -0.10219,0.05221 -0.21288,0.26528 -0.21193,0.40798 5.1e-4,0.09864 0.0965,0.37236 0.154,0.43981 0.041,0.04807 0.17224,0.28152 0.46277,0.82307 0.0644,0.12014 0.11718,0.24032 0.11718,0.26706 0,0.1118 -0.43589,0.2649 -0.97928,0.34395 -0.67177,0.09773 -1.0062,0.15459 -1.2089,0.20554 -0.11416,0.0287 -0.38857,0.08449 -0.60979,0.124 -0.8389,0.14981 -0.88157,0.14874 -1.0056,-0.02507 -0.0383,-0.05358 -0.22973,-0.41613 -0.42558,-0.80568 -0.19586,-0.38955 -0.37066,-0.73467 -0.38846,-0.76694 -0.0178,-0.03227 -0.26954,-0.52979 -0.55944,-1.1056 -0.28989,-0.5758 -0.5674,-1.1247 -0.61669,-1.2197 -0.0493,-0.09501 -0.19082,-0.37486 -0.31449,-0.62189 -0.12368,-0.24703 -0.25039,-0.49579 -0.28158,-0.55279 -0.16311,-0.29813 -0.46508,-0.90278 -0.46587,-0.93284 -0.002,-0.0694 -0.3073,-0.36347 -0.43027,-0.41423 -0.27782,-0.11467 -0.55623,-0.0456 -0.72386,0.17958 -0.0578,0.07759 -0.80676,1.5268 -1.6644,3.2205 -1.499,2.96 -1.5642,3.0814 -1.6827,3.1303 -0.13434,0.05545 -0.30829,0.06042 -0.49947,0.01425 z m -6.094204,-5.8895 c -1.275597,-0.06021 -1.793697,-0.10774 -2.814197,-0.25824 -0.77104,-0.1137 -1.0962,-0.17189 -1.4157,-0.25335 -0.15193,-0.03873 -0.34656,-0.08222 -0.43251,-0.09665 -0.16974,-0.02851 -1.3068,-0.38533 -1.3631,-0.42777 -0.01899,-0.01431 -0.08891,-0.04133 -0.15538,-0.06003 -0.24709,-0.06952 -0.681,-0.23327 -0.92273,-0.34822 -0.13716,-0.06523 -0.25887,-0.1186 -0.27045,-0.1186 -0.0396,0 -0.51567,-0.20639 -1.1031,-0.47821 -0.32286,-0.1494 -0.77348,-0.35634 -1.0014,-0.45987 -0.2279,-0.10352 -0.49206,-0.2436 -0.58702,-0.31129 -0.09496,-0.06768 -0.22259,-0.1514 -0.28363,-0.18603 -0.06105,-0.03463 -0.19312,-0.1168 -0.29351,-0.18261 -0.33547,-0.21991 -1.4063,-0.88475 -1.4251,-0.88475 -0.01018,0 -0.09992,-0.05468 -0.19943,-0.12151 -0.09951,-0.06682 -0.30524,-0.20231 -0.45717,-0.30107 -0.95073,-0.618 -1.5689,-1.2227 -1.9059,-1.8642 -0.04812,-0.09163 -0.10684,-0.18882 -0.13049,-0.21599 -0.02365,-0.02717 -0.05203,-0.07904 -0.06306,-0.11526 -0.01105,-0.03622 -0.06143,-0.16959 -0.11197,-0.29638 -0.05054,-0.12678 -0.11268,-0.31943 -0.13808,-0.4281 -0.02541,-0.10867 -0.06231,-0.25686 -0.08199,-0.32931 -0.04315,-0.15877 -0.04665,-1.2964 -0.0045,-1.4819 0.12956,-0.57074 0.18172,-0.72425 0.38478,-1.1324 0.32743,-0.65817 0.76569,-1.1591 1.397,-1.5967 0.36336,-0.25187 0.37583,-0.25856 0.96499,-0.51749 0.07597,-0.03339 0.32458,-0.10811 0.55248,-0.16604 0.39747,-0.10104 0.44181,-0.10539 1.0877,-0.10663 0.59,-0.0011 0.71394,0.0081 1.0014,0.07512 0.18042,0.04203 0.377,0.09692 0.43685,0.12196 0.05984,0.02505 0.14531,0.04619 0.18992,0.04699 0.04461,8.21e-4 0.14326,0.02356 0.21923,0.05061 0.07597,0.02703 0.20804,0.06282 0.29351,0.07953 0.27512,0.05376 0.60264,0.13609 0.6632,0.1667 0.03241,0.01639 0.12564,0.03855 0.20718,0.04927 0.08154,0.01071 0.20265,0.03922 0.26912,0.06335 0.16764,0.06086 0.54221,0.17261 0.70787,0.21119 0.4478,0.10429 0.57546,0.13744 0.6299,0.16357 0.03339,0.01603 0.17724,0.06271 0.31968,0.10374 0.28858,0.08312 0.41237,0.12362 0.69127,0.22609 0.10482,0.03852 0.21189,0.07003 0.23793,0.07003 0.02604,0 0.11897,0.03124 0.20652,0.06942 0.25428,0.11089 0.35938,0.15305 0.46994,0.18851 0.05698,0.01828 0.25898,0.09502 0.44889,0.17054 0.18992,0.07553 0.50846,0.20128 0.70787,0.27947 0.19942,0.07818 0.40919,0.16567 0.46616,0.19441 0.057,0.02874 0.1245,0.05233 0.15006,0.05245 0.0256,1.11e-4 0.0877,0.02116 0.13812,0.04678 0.0895,0.04547 0.59311,0.26991 0.83406,0.3717 0.0665,0.02807 0.1597,0.07008 0.20718,0.09334 0.60364,0.29567 0.940517,0.46498 1.243097,0.62478 0.19941,0.10531 0.4558,0.23854 0.56975,0.29607 0.113949,0.05753 0.323719,0.16428 0.466159,0.23723 0.14243,0.07294 0.398825,0.20268 0.569755,0.28829 0.17092,0.08561 0.41598,0.22469 0.54457,0.30906 0.22929,0.15044 0.29802,0.19129 0.63499,0.37745 0.0919,0.05078 0.19042,0.10586 0.21891,0.12241 0.0285,0.01655 0.13726,0.0772 0.24171,0.1348 0.34497,0.19022 0.64691,0.42928 0.92064,0.72893 0.14858,0.16263 0.30132,0.34515 0.33946,0.4056 0.0382,0.06044 0.15663,0.23288 0.26334,0.38318 0.28859,0.4065 0.52635,0.83152 0.77918,1.3929 0.26987,0.59922 0.33994,0.80296 0.4942,1.437 0.0955,0.39246 0.0973,1.104 0.004,1.4165 -0.18165,0.6058 -0.49639,0.97089 -1.0639,1.2342 -0.18023,0.08361 -0.43879,0.17949 -0.57456,0.21306 -1.1434,0.2827 -2.236,0.34325 -4.373204,0.24238 z"
         fill="#ffffff"
         style="display:inline;fill:#000814;fill-opacity:1;stroke:none;stroke-width:0.132294;stroke-dasharray:none;stroke-opacity:1;filter:url(#filter80)"
         inkscape:label="logo_wings_glow"
         transform="matrix(6.1881101,0,0,6.1881101,-420.65876,-282.33313)" /><path
         id="logo_wings"
         d="m 319.10793,106.02091 c 7.89355,-0.37258 11.09899,-0.66671 17.41456,-1.59802 4.77128,-0.70358 6.78344,-1.06367 8.76052,-1.56776 0.94015,-0.23967 2.14459,-0.50878 2.67642,-0.59808 1.05038,-0.17648 8.08665,-2.38446 8.435,-2.647083 0.11753,-0.08854 0.55016,-0.25574 0.96151,-0.371472 1.52904,-0.430198 4.21406,-1.443503 5.70999,-2.154825 0.84873,-0.403653 1.60189,-0.733908 1.67354,-0.733908 0.2451,0 3.19105,-1.277104 6.82611,-2.959217 1.99785,-0.924502 4.78631,-2.205073 6.19682,-2.845726 1.41018,-0.640593 3.04491,-1.507484 3.6325,-1.926298 0.58789,-0.418872 1.37742,-0.936879 1.75509,-1.151172 0.3781,-0.21432 1.19501,-0.722771 1.81634,-1.130012 2.07583,-1.360826 8.7023,-5.474929 8.81863,-5.474929 0.0632,0 0.61886,-0.338368 1.23411,-0.751919 0.61573,-0.413551 1.88887,-1.251918 2.82902,-1.863053 5.88332,-3.824253 9.70854,-7.566205 11.79392,-11.535878 0.29768,-0.567017 0.66112,-1.168437 0.8075,-1.336568 0.14603,-0.168123 0.32181,-0.489109 0.39045,-0.713244 0.0681,-0.224146 0.37997,-1.049441 0.69285,-1.834029 0.31309,-0.784529 0.69727,-1.976668 0.85446,-2.64913 0.15715,-0.672461 0.38553,-1.58948 0.50741,-2.037807 0.26681,-0.982549 0.28836,-8.022267 0.0309,-9.17016 -0.80177,-3.531804 -1.12453,-4.481739 -2.38105,-7.007414 -2.02619,-4.072895 -4.7382,-7.172642 -8.64481,-9.880559 -2.24855,-1.558599 -2.32571,-1.599998 -5.97146,-3.202285 -0.46968,-0.206619 -2.00854,-0.668997 -3.41889,-1.027474 -2.45955,-0.625247 -2.73399,-0.652165 -6.7308,-0.659839 -3.65096,-0.0068 -4.41794,0.05012 -6.19677,0.464852 -1.11647,0.260086 -2.33293,0.59969 -2.70329,0.754701 -0.37064,0.154953 -0.89922,0.285829 -1.17526,0.29078 -0.27596,0.0051 -0.88646,0.145855 -1.3566,0.313181 -0.46968,0.167325 -1.28739,0.388737 -1.81621,0.492139 -1.70251,0.332674 -3.72919,0.84214 -4.10395,1.031559 -0.20058,0.101422 -0.77748,0.238553 -1.28215,0.304887 -0.50491,0.06628 -1.254,0.242698 -1.66524,0.392017 -1.03737,0.376608 -3.35526,1.06813 -4.38037,1.306929 -2.77115,0.645358 -3.56106,0.850495 -3.89793,1.01219 -0.20683,0.0992 -1.09684,0.387993 -1.97825,0.641955 -1.78578,0.514355 -2.55181,0.764973 -4.27766,1.399071 -0.64866,0.238368 -1.31122,0.433352 -1.47234,0.433352 -0.16095,0 -0.73619,0.193311 -1.27796,0.429514 -1.57348,0.686201 -2.22385,0.947096 -2.90801,1.166584 -0.35269,0.113104 -1.60257,0.587995 -2.77783,1.055322 -1.17517,0.467386 -3.14634,1.245545 -4.38031,1.729391 -1.23397,0.483786 -2.53213,1.025183 -2.88469,1.203028 -0.35275,0.17784 -0.77042,0.323826 -0.92861,0.324567 -0.1577,6.75e-4 -0.54269,0.130964 -0.85467,0.289484 -0.5538,0.281371 -3.67021,1.67023 -5.16119,2.300118 -0.41094,0.173714 -0.98827,0.433661 -1.28209,0.577597 -3.7354,1.82964 -5.82006,2.877349 -7.69243,3.86621 -1.23402,0.65167 -2.82046,1.47611 -3.52569,1.832113 -0.70512,0.356003 -2.00328,1.016581 -2.88458,1.467943 -0.88146,0.451361 -2.46799,1.254206 -3.52575,1.783972 -1.05765,0.529761 -2.57409,1.390406 -3.36984,1.912497 -1.41892,0.930937 -1.84414,1.183721 -3.92933,2.3357 -0.5687,0.314232 -1.17847,0.655071 -1.35468,0.757486 -0.17643,0.10241 -0.84941,0.47772 -1.49584,0.83416 -2.13462,1.177101 -4.00308,2.656431 -5.69702,4.510698 -0.91935,1.00637 -1.86449,2.135825 -2.10053,2.509897 -0.23641,0.374072 -0.96927,1.441085 -1.62957,2.371162 -1.78589,2.515464 -3.25712,5.145537 -4.82177,8.619415 -1.66985,3.708038 -2.10352,4.968807 -3.05808,8.892315 -0.59095,2.428586 -0.60205,6.831676 -0.0244,8.76546 1.12414,3.748758 3.07162,6.007975 6.5835,7.637365 1.11543,0.51739 2.71542,1.11071 3.55552,1.31844 7.07547,1.74938 13.83659,2.12407 27.06184,1.49987 z m -64.74619,109.56668 c -0.22854,-0.091 -0.83546,-0.56398 -1.35006,-1.05117 -1.27248,-1.20446 -2.03919,-1.76337 -2.72278,-1.98484 -0.31621,-0.10265 -1.03124,-0.39511 -1.58816,-0.65006 -0.55694,-0.25487 -1.46829,-0.63793 -2.02515,-0.85117 -0.55692,-0.21327 -1.31632,-0.51628 -1.68753,-0.67339 -0.37128,-0.15719 -1.64648,-0.69679 -2.83374,-1.19908 l -2.15867,-0.9133 -5.99249,-5.90667 c -4.99871,-4.92704 -5.99814,-5.98972 -6.02626,-6.40779 -0.0309,-0.44443 0.0434,-0.5268 0.64125,-0.7302 0.37129,-0.12599 1.20661,-0.33793 1.8563,-0.47073 0.64975,-0.13289 1.86488,-0.39597 2.7002,-0.58477 0.83543,-0.18873 2.01253,-0.44994 2.61581,-0.58014 0.60333,-0.13015 1.78046,-0.39437 2.61579,-0.58694 2.18052,-0.5026 5.43058,-1.0638 8.80318,-1.52005 3.93325,-0.53205 12.3911,-0.58174 15.32983,-0.0901 0.74252,0.12426 1.99554,0.27401 2.78453,0.3328 0.78891,0.0588 1.66223,0.17773 1.94077,0.2641 0.27846,0.0865 0.99989,0.23294 1.60322,0.32543 0.60333,0.0925 1.40073,0.24328 1.77197,0.33503 0.37126,0.0918 1.43447,0.32369 2.36267,0.51546 0.92821,0.1919 2.02939,0.43342 2.44709,0.53695 0.41708,0.10366 1.25303,0.28917 1.8563,0.41249 0.60336,0.12329 1.51466,0.3096 2.02521,0.41381 1.70797,0.34876 3.2889,0.90457 3.33833,1.17382 0.0627,0.3362 -12.04144,12.22461 -12.90469,12.67572 -0.35457,0.18509 -1.4589,0.67154 -2.45542,1.08131 -0.9965,0.40972 -1.94574,0.8203 -2.10947,0.91244 -0.16394,0.0922 -0.7914,0.36498 -1.39473,0.60637 -0.60336,0.24141 -1.43868,0.59196 -1.85636,0.7789 -0.41705,0.18702 -0.91134,0.40297 -1.09692,0.48001 -1.86637,0.77476 -2.41262,1.10885 -3.44902,2.10941 -1.35923,1.31224 -2.10729,1.61874 -3.04081,1.24603 z m -36.86877,-34.56616 c -0.53344,-0.19288 -0.71597,-0.57054 -1.40019,-2.89753 -0.27846,-0.94838 -0.62963,-2.13273 -0.77938,-2.63186 -0.44745,-1.48972 -1.09828,-3.74467 -1.38898,-4.80995 -0.14983,-0.54908 -0.36697,-1.24332 -0.48143,-1.54282 -0.11509,-0.29945 -0.30015,-0.91207 -0.40967,-1.36133 -0.11074,-0.44926 -0.39295,-1.47023 -0.62754,-2.26887 -0.23533,-0.79863 -0.5111,-1.80464 -0.61384,-2.23564 -0.10287,-0.43094 -0.23886,-0.85903 -0.30262,-0.95136 -0.16584,-0.24127 -1.51191,-4.96763 -1.77123,-6.21843 -0.23153,-1.11485 -0.0556,-1.69913 0.49566,-1.63397 0.15091,0.0174 1.31832,0.20818 2.59407,0.4229 1.27568,0.21467 2.85013,0.45755 3.49882,0.53966 0.64863,0.0821 1.78315,0.27463 2.52119,0.42772 1.93599,0.4018 5.89494,1.0315 6.48511,1.03144 0.27724,-2e-5 0.94978,0.12165 1.49432,0.27029 0.54451,0.14866 1.36759,0.27034 1.82908,0.27034 0.46102,0 1.28649,0.11837 1.83352,0.26328 0.54642,0.14478 1.74914,0.34734 2.67127,0.45013 0.92218,0.10273 1.7705,0.23907 1.88534,0.3029 0.11509,0.0638 1.62928,0.2314 3.36561,0.37228 1.73641,0.14082 3.97379,0.35613 4.97222,0.47828 2.01169,0.24616 1.33241,-0.11937 7.11197,3.82772 0.8585,0.58632 1.87858,1.25371 2.26683,1.4831 0.38801,0.22936 0.96963,0.62772 1.29198,0.88515 0.97027,0.77506 1.44058,0.64035 4.08247,-1.16974 1.31491,-0.9008 3.44999,-2.35804 4.74474,-3.23824 l 2.35412,-1.60036 2.08311,-0.30743 c 1.14567,-0.16905 3.10517,-0.38199 4.35439,-0.4732 1.2492,-0.0912 2.3383,-0.20309 2.4203,-0.24863 0.082,-0.0458 1.19269,-0.17507 2.46837,-0.28794 2.91403,-0.25772 5.43205,-0.64294 9.58043,-1.46565 0.55507,-0.10998 1.77992,-0.30947 2.72289,-0.44332 0.94289,-0.13381 2.12284,-0.33081 2.62197,-0.43786 0.4994,-0.10714 2.04212,-0.36721 3.42869,-0.57816 1.38665,-0.21104 3.11969,-0.50173 3.85116,-0.64598 1.50258,-0.29634 2.00111,-0.20688 1.9908,0.3573 -0.0136,0.50762 -0.73509,3.31083 -1.29912,5.01745 -0.14847,0.44926 -0.32671,1.10266 -0.39604,1.4521 -0.0695,0.34938 -0.25758,1.04368 -0.4177,1.54282 -0.16014,0.49913 -0.47709,1.52017 -0.70365,2.26887 -0.22664,0.74876 -0.53713,1.76974 -0.69127,2.26887 -0.2546,0.82506 -0.57614,1.95167 -1.45198,5.08223 -0.53589,1.91621 -1.10534,3.79567 -1.3192,4.35619 -0.11455,0.29944 -0.34404,1.11627 -0.51051,1.81509 -0.60645,2.54505 -1.11986,2.64071 -7.32175,1.36541 -3.80391,-0.78224 -5.49974,-1.09313 -5.96288,-1.09313 -0.26736,0 -1.14573,-0.15395 -1.95122,-0.3422 -2.95529,-0.69054 -7.50001,-1.42773 -10.23823,-1.66058 -1.27577,-0.10855 -2.63723,-0.27544 -3.02543,-0.37092 -1.17241,-0.28836 -12.914,-0.57388 -15.00679,-0.36491 -1.00885,0.10086 -3.0143,0.2356 -4.45637,0.29963 -1.4421,0.064 -3.89267,0.3172 -5.44562,0.56256 -1.55309,0.24534 -3.73127,0.55947 -4.84063,0.69802 -2.07458,0.2591 -3.50409,0.50767 -6.65594,1.15717 -0.9984,0.20575 -3.26738,0.62834 -5.04233,0.93905 -1.77485,0.3107 -3.8234,0.72141 -4.55235,0.91262 -1.49313,0.39171 -1.34609,0.3797 -1.9551,0.15952 z m 10.61134,-39.07049 c -0.41643,-0.10049 -1.634,-0.34282 -2.70533,-0.53825 -1.07125,-0.19548 -2.33732,-0.42821 -2.81349,-0.5172 -2.67067,-0.49919 -7.6145,-1.35996 -9.28218,-1.61608 -3.01785,-0.46356 -4.2253,-0.87154 -4.47141,-1.51096 -0.16584,-0.43143 -0.11943,-0.65662 0.22529,-1.08935 0.23886,-0.3 0.43442,-0.61949 0.43442,-0.7099 0,-0.0905 0.35459,-0.775 0.78782,-1.52116 1.81985,-3.13422 2.89145,-5.42208 2.89145,-6.17332 0,-1.2466 -1.03032,-2.62809 -2.30001,-3.08379 -1.69678,-0.60903 -2.70378,-0.64628 -3.66795,-0.13571 -0.46346,0.24545 -0.9269,0.44641 -1.02931,0.44641 -0.10287,0 -0.44495,0.18181 -0.7607,0.40384 -1.50562,1.05829 -13.81808,8.01793 -15.22896,8.60766 -0.6298,0.26342 -1.48591,0.69066 -1.90247,0.94938 -0.41646,0.25867 -1.14709,0.58892 -1.62323,0.73366 -0.47587,0.14478 -1.01438,0.39078 -1.19618,0.54685 -0.18186,0.15588 -1.39197,0.63452 -2.6894,1.06336 -1.29743,0.4289 -2.65832,0.90749 -3.02415,1.06355 -2.59882,1.10879 -6.54764,1.83898 -10.62067,1.96392 -3.19844,0.098 -3.62808,0.0647 -5.6271,-0.43719 -3.65435,-0.91757 -4.39141,-1.18836 -6.69117,-2.45829 -2.02787,-1.11992 -3.32853,-2.14319 -5.6176,-4.41936 -2.66711,-2.65216 -6.41708,-7.74937 -8.41458,-11.4381 -0.4139,-0.76436 -0.96015,-1.7526 -1.21386,-2.1961 -0.25378,-0.44357 -1.05811,-2.17531 -1.7876,-3.84833 -0.72946,-1.67308 -1.49747,-3.42678 -1.70669,-3.89714 -0.20927,-0.47036 -0.45334,-1.09574 -0.54256,-1.38973 -0.0893,-0.294 -0.42538,-1.06361 -0.74702,-1.71039 -0.32154,-0.64672 -0.94973,-2.33038 -1.39582,-3.74146 -0.44607,-1.41107 -0.91032,-2.80606 -1.03168,-3.10006 -0.12132,-0.29399 -0.4592,-1.34609 -0.7509,-2.338052 -0.6019,-2.04678 -0.60418,-3.072148 -0.008,-3.183965 0.2166,-0.04085 1.48268,0.453958 2.81355,1.098943 1.33087,0.644925 3.10162,1.48063 3.93485,1.857177 0.83323,0.376487 2.3915,1.093877 3.46288,1.594177 1.07128,0.50025 2.53216,1.12921 3.24637,1.39759 2.70063,1.01473 3.47551,1.31311 3.89568,1.50024 0.88936,0.39604 2.19157,0.9005 3.03004,1.17376 0.47616,0.15515 1.40133,0.49202 2.05601,0.74858 1.9516,0.76466 4.00998,1.37859 7.57487,2.25922 0.65471,0.16174 1.72601,0.42852 2.38067,0.59282 2.15392,0.54059 6.45607,1.32524 8.98209,1.63824 4.36872,0.5414 7.31929,0.84635 9.40964,0.97265 1.24727,0.0754 2.75685,0.22778 3.35461,0.33867 1.67754,0.31126 18.55815,0.59338 22.70975,0.37958 3.40836,-0.17551 4.77978,-0.36361 8.67701,-1.18966 6.7976,-1.44091 11.55626,-4.44127 13.53275,-8.53155 1.29433,-2.679019 1.49543,-3.413798 1.76982,-6.469055 0.19869,-2.207295 0.19679,-3.312679 -0.005,-4.917316 -0.27474,-2.179393 -0.76855,-4.627716 -1.1505,-5.704571 -0.12486,-0.352722 -0.51051,-1.555384 -0.85631,-2.672459 -0.3459,-1.117081 -0.7183,-2.22351 -0.82769,-2.458662 -0.10966,-0.235166 -0.70645,-1.534031 -1.32674,-2.886255 -0.62043,-1.35229 -1.71481,-3.516952 -2.43219,-4.810456 -1.28771,-2.321778 -1.71008,-2.982915 -4.42125,-6.922017 -2.43265,-3.534217 -3.2189,-5.236566 -4.15942,-9.005558 -0.33541,-1.343314 -0.8169,-4.681242 -0.98719,-6.841574 -0.21551,-2.736386 0.68316,-9.311871 1.6514,-12.07981 0.12377,-0.352786 0.30693,-0.97011 0.40717,-1.371843 0.10043,-0.401733 0.3354,-1.051172 0.52168,-1.443129 0.18702,-0.391956 0.47587,-1.025369 0.64264,-1.407487 0.76486,-1.75241 2.39261,-4.821342 2.91837,-5.501971 0.31931,-0.413428 0.86931,-1.179145 1.22238,-1.701608 1.43561,-2.124315 8.30509,-8.563725 9.13553,-8.563725 0.11508,0 0.63726,-0.320049 1.16024,-0.711323 0.52291,-0.39115 1.43801,-0.931744 2.03314,-1.201175 0.59524,-0.269431 1.22821,-0.575307 1.40681,-0.679702 0.17888,-0.104397 0.47028,-0.248881 0.64923,-0.321105 0.17888,-0.07226 0.71424,-0.295481 1.19041,-0.496219 0.47589,-0.200681 1.59611,-0.585335 2.48884,-0.854578 0.89278,-0.269244 1.91541,-0.618065 2.2725,-0.774998 0.3571,-0.156991 1.23367,-0.345671 1.94788,-0.419494 0.71421,-0.0738 2.00054,-0.270736 2.85853,-0.437808 1.79219,-0.348882 7.23392,-0.395601 8.72029,-0.07498 0.53529,0.115615 1.71595,0.303027 2.6229,0.416391 0.90689,0.113484 1.92953,0.350871 2.27245,0.527539 0.34282,0.176738 0.8164,0.321779 1.05225,0.322584 0.39911,0.0012 1.78499,0.480382 3.5752,1.236083 1.39821,0.590216 2.70275,1.178583 3.02996,1.36664 0.17887,0.102597 0.61698,0.330322 0.97388,0.506063 0.74375,0.365966 1.09009,0.577228 2.53015,1.542574 0.56989,0.382176 1.13007,0.694862 1.24442,0.694862 0.11454,0 0.28527,0.12531 0.3812,0.278341 0.0944,0.153094 0.61011,0.610086 1.1451,1.015531 1.60604,1.217944 3.43588,2.994179 4.8342,4.692444 0.72612,0.88193 1.37587,1.651606 1.44375,1.710393 0.1349,0.116397 1.68327,2.408908 2.09432,3.100058 0.28524,0.478775 2.05642,4.015279 2.68934,5.368371 0.22664,0.483229 0.41089,1.07673 0.41089,1.318934 0,0.242168 0.13734,0.712684 0.30571,1.045542 0.47212,0.935826 1.21545,3.525429 1.21613,4.239845 3.8e-4,0.352784 0.14467,1.507303 0.32053,2.565592 0.62863,3.779325 0.37626,8.360136 -0.69434,12.613845 -1.11115,4.414037 -1.7448,5.620474 -6.06431,11.545155 -0.51422,0.705508 -1.05097,1.523268 -1.19249,1.817263 -0.14169,0.293995 -0.67904,1.263796 -1.19445,2.155194 -0.97484,1.686199 -3.17707,6.244424 -3.55536,7.358901 -0.11998,0.352784 -0.34779,0.930012 -0.50741,1.282796 -0.42574,0.942946 -1.19003,3.521531 -2.18728,7.376226 -0.23397,0.90427 -0.39542,2.648761 -0.46284,4.994115 -0.0923,3.224007 -0.0497,3.821962 0.38923,5.665648 0.70346,2.942628 1.88444,5.102278 3.8868,7.107658 0.89275,0.894 1.87728,1.75984 2.18779,1.9242 2.80696,1.48508 4.57018,2.32982 4.86314,2.32982 0.19244,0 0.65729,0.134 1.03243,0.29784 0.71377,0.31175 3.3681,0.91812 6.85023,1.56509 1.8123,0.3367 3.42831,0.38199 13.63489,0.38199 8.35208,0 12.00119,-0.0748 13.09401,-0.26879 0.83324,-0.14777 2.87856,-0.36089 4.54499,-0.47352 2.95475,-0.19955 5.69962,-0.47332 8.54886,-0.85253 1.2593,-0.16758 3.04695,-0.48441 7.89974,-1.4 0.8334,-0.15721 2.2455,-0.49319 3.13826,-0.7466 0.89281,-0.25346 2.11022,-0.58688 2.70538,-0.74108 3.06682,-0.79462 4.55601,-1.28453 7.79207,-2.56349 1.94684,-0.76937 3.6443,-1.39888 3.77212,-1.39888 0.12811,0 0.59595,-0.19239 1.04009,-0.4276 0.44435,-0.23517 0.92294,-0.4276 1.06381,-0.4276 0.2432,0 1.95412,-0.76492 6.56746,-2.936445 4.46044,-2.099437 7.27043,-3.276295 7.68316,-3.21794 0.35956,0.05076 0.43008,0.216545 0.41398,0.972279 -0.0136,0.501049 -0.12377,1.12648 -0.25188,1.38966 -0.12812,0.26315 -0.67795,1.825496 -1.22184,3.471716 -0.54332,1.64628 -1.24053,3.66664 -1.54825,4.48978 -0.30816,0.82315 -0.63691,1.73713 -0.73164,2.03106 -0.0947,0.294 -0.53897,1.35229 -0.98743,2.3518 -1.25918,2.80686 -1.40828,3.15532 -1.40828,3.29121 0,0.0696 -0.58973,1.30574 -1.31054,2.74702 -2.31037,4.61967 -4.03989,7.57301 -5.88367,10.04763 -3.92494,5.26695 -7.35208,8.34281 -11.75305,10.54826 -2.55735,1.28168 -3.70592,1.69486 -6.05025,2.17629 -3.39449,0.69716 -11.70663,0.36077 -13.44923,-0.54424 -0.22095,-0.11498 -0.8388,-0.28045 -1.37221,-0.36788 -1.61158,-0.26391 -6.54517,-2.14468 -8.01178,-3.05402 -0.41643,-0.25843 -0.83845,-0.47011 -0.93763,-0.47048 -0.33782,-0.002 -3.0632,-1.25304 -4.68941,-2.15365 -0.89279,-0.49443 -2.06148,-1.13626 -2.59711,-1.4263 -1.92392,-1.04146 -4.01576,-2.27351 -4.65321,-2.74047 -0.35769,-0.2616 -1.52581,-0.92797 -2.59714,-1.48087 -1.07125,-0.55291 -2.09396,-1.12859 -2.27248,-1.27933 -0.17887,-0.15084 -0.99671,-0.62277 -1.81811,-1.04901 -1.29751,-0.67327 -1.68945,-0.77494 -2.98661,-0.77494 -0.88654,0 -1.74168,0.12706 -2.10485,0.3125 -0.63237,0.32308 -1.31732,1.64158 -1.31143,2.52462 0.003,0.6104 0.59714,2.30421 0.95298,2.7216 0.25379,0.29746 1.06579,1.74207 2.8636,5.09325 0.39854,0.74344 0.72518,1.48712 0.72518,1.65259 0,0.69184 -2.69735,1.63923 -6.05992,2.1284 -4.15698,0.60477 -6.22649,0.95662 -7.48081,1.27191 -0.70642,0.17757 -2.40454,0.52283 -3.77343,0.76732 -5.19121,0.92705 -5.45528,0.92043 -6.22277,-0.15515 -0.23723,-0.33155 -1.42161,-2.57505 -2.63354,-4.98563 -1.21201,-2.41058 -2.29368,-4.54622 -2.40385,-4.74591 -0.10993,-0.19969 -1.66793,-3.2784 -3.46186,-6.84158 -1.79389,-3.56311 -3.51111,-6.95976 -3.81612,-7.54763 -0.30511,-0.58793 -1.18085,-2.31968 -1.94614,-3.84833 -0.76532,-1.52865 -1.54945,-3.068 -1.74244,-3.42072 -1.00933,-1.84486 -2.87795,-5.5865 -2.88287,-5.77252 -0.0136,-0.42946 -1.90157,-2.24919 -2.66252,-2.5633 -1.7192,-0.70959 -3.44201,-0.28218 -4.47933,1.11126 -0.35766,0.48013 -4.99233,9.448 -10.2995,19.92881 -9.27596,18.31681 -9.67946,19.06804 -10.4127,19.37064 -0.83136,0.34313 -1.90776,0.37388 -3.09079,0.0882 z m -37.71155,-36.44488 c -7.89355,-0.37258 -11.09964,-0.6667 -17.41456,-1.59801 -4.77131,-0.7036 -6.78344,-1.06368 -8.76055,-1.56776 -0.94015,-0.23968 -2.14453,-0.50879 -2.67642,-0.59809 -1.05035,-0.17642 -8.08659,-2.384461 -8.435,-2.647082 -0.11753,-0.08854 -0.55018,-0.25574 -0.96151,-0.371472 -1.52901,-0.430198 -4.21411,-1.443503 -5.70996,-2.154825 -0.84873,-0.403649 -1.60189,-0.73391 -1.67357,-0.73391 -0.2451,0 -3.19102,-1.277164 -6.8261,-2.959215 -1.99788,-0.924505 -4.78638,-2.205072 -6.19677,-2.845728 -1.41028,-0.640593 -3.04492,-1.507424 -3.63255,-1.926298 -0.58763,-0.418809 -1.37741,-0.936877 -1.75513,-1.151175 -0.37779,-0.214293 -1.19505,-0.722768 -1.81628,-1.130006 -2.07592,-1.360832 -8.70233,-5.474932 -8.81867,-5.474932 -0.063,0 -0.61831,-0.338368 -1.23409,-0.751917 -0.61578,-0.413491 -1.88887,-1.25192 -2.82902,-1.863055 -5.88323,-3.824253 -9.70853,-7.566205 -11.793922,-11.535875 -0.297773,-0.567017 -0.661143,-1.16844 -0.807489,-1.336571 -0.146354,-0.168123 -0.321966,-0.489107 -0.390222,-0.713241 -0.06837,-0.224146 -0.380136,-1.049444 -0.692884,-1.834032 -0.312745,-0.784529 -0.697275,-1.976668 -0.854454,-2.649132 -0.157212,-0.672462 -0.385581,-1.589475 -0.507363,-2.037805 -0.267004,-0.982487 -0.288672,-8.022267 -0.02787,-9.17016 0.801729,-3.531801 1.124501,-4.481739 2.381058,-7.007417 2.026176,-4.072829 4.738186,-7.172639 8.644796,-9.880556 2.24852,-1.558599 2.32568,-1.599998 5.97147,-3.202286 0.47011,-0.206619 2.00853,-0.668995 3.41881,-1.027473 2.45958,-0.625246 2.73397,-0.652165 6.7308,-0.659838 3.65099,-0.0068 4.41793,0.05012 6.19676,0.46485 1.11647,0.260089 2.33292,0.599753 2.70331,0.754703 0.3703,0.155015 0.89922,0.285829 1.17526,0.290779 0.27604,0.0051 0.88651,0.145792 1.3566,0.31318 0.47012,0.167265 1.28738,0.388738 1.81629,0.492141 1.70246,0.332673 3.72918,0.84214 4.10395,1.031558 0.20058,0.101422 0.77744,0.238553 1.28206,0.304888 0.50456,0.06628 1.25403,0.242698 1.66533,0.392017 1.0374,0.376608 3.35529,1.06813 4.38039,1.306867 2.77104,0.645358 3.56101,0.850493 3.89788,1.012189 0.20683,0.0992 1.09679,0.388056 1.97823,0.641955 1.78577,0.514354 2.55179,0.764975 4.27762,1.39907 0.64867,0.238369 1.31122,0.433352 1.47237,0.433352 0.16122,0 0.73616,0.193312 1.27797,0.429579 1.5735,0.686199 2.22387,0.947091 2.90803,1.166522 0.35259,0.113131 1.6026,0.587995 2.77777,1.055319 1.17526,0.46739 3.14646,1.245543 4.3804,1.729391 1.23402,0.483786 2.5321,1.025183 2.88463,1.203029 0.35273,0.177867 0.77043,0.323825 0.92862,0.324569 0.15851,6.86e-4 0.54269,0.130964 0.8547,0.289478 0.55382,0.281374 3.6702,1.670233 5.16124,2.300124 0.41151,0.173714 0.98823,0.433659 1.28204,0.577595 3.7354,1.82964 5.82005,2.877349 7.69245,3.866209 1.23396,0.651668 2.82051,1.476113 3.52565,1.832113 0.7051,0.356003 2.0032,1.016582 2.88466,1.468008 0.88136,0.451356 2.46798,1.254204 3.52567,1.783967 1.05768,0.529764 2.57415,1.390407 3.3699,1.912497 1.41886,0.93094 1.84416,1.183727 3.92936,2.335702 0.5687,0.314233 1.17835,0.655077 1.35463,0.75749 0.17643,0.10241 0.84943,0.477722 1.49575,0.834154 2.13471,1.177104 4.00317,2.656433 5.69701,4.5107 0.91945,1.006373 1.86461,2.135826 2.10062,2.509898 0.23641,0.374012 0.96927,1.441087 1.62957,2.371162 1.78584,2.515464 3.25709,5.145536 4.82167,8.619415 1.66996,3.708043 2.1036,4.968807 3.05818,8.892315 0.59095,2.428586 0.60205,6.831676 0.0244,8.76546 -1.12409,3.748757 -3.07173,6.007976 -6.58352,7.637366 -1.1153,0.51739 -2.71532,1.1107 -3.55547,1.31844 -7.07547,1.74938 -13.83659,2.12407 -27.06187,1.49987 z"
         fill="#ffffff"
         style="display:inline;fill:url(#radialGradient4);stroke:none;stroke-width:0.81865;stroke-dasharray:none;stroke-opacity:1" /><path
         id="path81"
         d="m 108.78646,71.153099 c -0.10799,-0.06592 -0.32487,-0.2192 -0.48196,-0.34062 -0.15707,-0.12142 -0.40609,-0.30316 -0.55335,-0.40387 -0.14727,-0.1007 -0.29577,-0.20879 -0.33003,-0.24018 -0.0342,-0.03138 -0.17573,-0.14544 -0.31439,-0.25344 -0.895,-0.69702 -0.98707,-0.84166 -0.84094,-1.3209 0.0382,-0.12513 1.2027,-2.5085 1.3868,-2.8382 0.0219,-0.03928 0.25233,-0.49359 0.51203,-1.0096 0.25969,-0.51601 0.51365,-0.99258 0.56435,-1.0591 0.13354,-0.17508 0.39062,-0.25544 0.63199,-0.19754 0.0986,0.02367 0.22439,0.08091 0.27939,0.1272 0.0688,0.05784 0.4868,0.85839 1.3367,2.5597 1.1079,2.2178 1.2366,2.4933 1.2366,2.6464 0,0.26458 -0.0813,0.38794 -0.44176,0.6708 -0.17918,0.1406 -0.33383,0.26539 -0.34365,0.27732 -0.0101,0.01193 -0.12227,0.10038 -0.2499,0.19656 -0.12763,0.09618 -0.4891,0.36908 -0.80326,0.60644 -0.89243,0.67428 -0.89135,0.67364 -1.1602,0.68716 -0.21098,0.01061 -0.2499,6.28e-4 -0.42841,-0.10819 z"
         fill="#ffffff"
         style="display:inline;fill:#980de5;fill-opacity:1;stroke:none;stroke-width:0.132294;stroke-dasharray:none;stroke-opacity:1;filter:url(#filter81)"
         inkscape:label="logo_diamond_glow"
         transform="matrix(6.1881101,0,0,6.1881101,-420.65876,-282.33313)" /><path
         id="logo_diamond"
         d="m 252.52387,157.9701 c -0.66826,-0.40793 -2.01034,-1.35644 -2.9824,-2.1078 -0.97202,-0.75136 -2.51297,-1.87599 -3.42421,-2.49919 -0.91135,-0.62314 -1.83027,-1.29201 -2.04226,-1.48626 -0.21171,-0.19418 -1.08745,-0.9 -1.94549,-1.56831 -5.53836,-4.31324 -6.10809,-5.20829 -5.20385,-8.17388 0.23641,-0.77432 7.44243,-15.52287 8.58167,-17.56309 0.13545,-0.24304 1.56148,-3.05439 3.16852,-6.24752 1.60697,-3.19313 3.17851,-6.14219 3.49226,-6.55383 0.82634,-1.08341 2.41721,-1.58069 3.91082,-1.2224 0.61015,0.14647 1.38852,0.50068 1.72889,0.78713 0.42571,0.35792 3.01237,5.31181 8.27165,15.83971 6.8558,13.72399 7.6522,15.42881 7.6522,16.37621 0,1.63725 -0.50307,2.40062 -2.73367,4.15099 -1.10875,0.87004 -2.06576,1.64226 -2.1265,1.71608 -0.0627,0.0738 -0.75664,0.62117 -1.54641,1.21634 -0.78981,0.59517 -3.02662,2.28391 -4.97067,3.75271 -5.52246,4.17252 -5.51579,4.16857 -7.17943,4.25223 -1.30559,0.0657 -1.54641,0.004 -2.65107,-0.6695 z"
         fill="#ffffff"
         style="display:inline;fill:url(#radialGradient9);fill-opacity:1;stroke:none;stroke-width:0.81865;stroke-dasharray:none;stroke-opacity:1" /><path
         id="logo_face"
         d="m 259.20701,79.566741 c 2.86015,-0.353777 7.03961,-1.466211 8.58417,-2.285024 0.20873,-0.110715 0.90207,-0.410641 1.54047,-0.666522 0.63845,-0.25593 2.36224,-1.25767 3.83064,-2.226296 7.37749,-4.866329 12.44245,-12.632408 14.09716,-21.615687 0.3416,-1.853832 0.46784,-6.429445 0.24022,-8.652833 -0.34469,-3.356926 -1.33131,-7.220288 -2.45114,-9.602712 -0.27289,-0.580382 -0.59774,-1.292694 -0.72205,-1.582917 -0.12432,-0.290223 -0.42946,-0.860023 -0.67819,-1.266335 -0.2489,-0.406312 -0.55814,-0.92865 -0.68688,-1.160766 -0.48697,-0.874441 -1.09527,-1.732423 -2.22658,-3.137558 -0.64172,-0.797028 -1.29377,-1.623202 -1.44916,-1.83595 -0.15526,-0.212749 -1.24757,-1.250555 -2.42709,-2.306308 -2.48205,-2.221408 -2.43317,-2.181434 -3.10775,-2.537125 -0.28277,-0.149134 -0.56185,-0.328218 -0.61975,-0.397897 -0.27352,-0.328774 -1.52508,-1.061941 -3.06036,-1.793252 -3.50254,-1.668438 -4.75325,-2.170975 -5.88975,-2.366519 -0.45361,-0.07803 -1.07092,-0.270419 -1.37188,-0.427413 -0.30134,-0.157054 -0.95489,-0.286138 -1.45312,-0.286818 -0.49816,-7.12e-4 -1.63373,-0.151609 -2.52334,-0.335397 -2.55534,-0.527846 -8.41518,-0.131249 -11.44989,0.774815 -0.75452,0.225307 -1.53238,0.408167 -1.72873,0.406496 -0.19624,-0.0017 -0.41089,0.08459 -0.47711,0.19177 -0.0662,0.107181 -0.42452,0.26157 -0.79551,0.343069 -0.70568,0.155012 -1.27834,0.412622 -4.06871,1.830443 -2.92747,1.487498 -5.00631,2.989847 -7.41584,5.359521 -2.1695,2.133352 -4.08625,4.289908 -4.08625,4.597395 0,0.07215 -0.31189,0.581311 -0.69284,1.131497 -0.98855,1.427287 -2.9985,5.59399 -3.53688,7.331673 -0.25189,0.812562 -0.54888,1.762312 -0.65927,2.110517 -0.11156,0.348205 -0.38554,1.867819 -0.61015,3.376854 -0.96696,6.495038 -0.14114,12.326092 2.57855,18.215938 0.44557,0.964475 0.81002,1.800804 0.81002,1.858412 0,0.301549 2.38314,3.811136 3.71762,5.474994 3.61201,4.503333 9.0798,8.214718 14.85515,10.084144 2.74303,0.887683 3.21803,0.998949 5.48745,1.284593 2.80019,0.352531 6.14386,0.396717 8.4474,0.111774 z"
         fill="#4f00ff"
         style="display:inline;fill:#d6e6ee;fill-opacity:1;stroke:#221e7e;stroke-width:0.81865;stroke-dasharray:none;stroke-opacity:0.415686" /><path
         id="path85"
         d="m 259.20701,79.566741 c 2.86015,-0.353777 7.03961,-1.466211 8.58417,-2.285024 0.20873,-0.110715 0.90207,-0.410641 1.54047,-0.666522 0.63845,-0.25593 2.36224,-1.25767 3.83064,-2.226296 7.37749,-4.866329 12.44245,-12.632408 14.09716,-21.615687 0.3416,-1.853832 0.46784,-6.429445 0.24022,-8.652833 -0.34469,-3.356926 -1.33131,-7.220288 -2.45114,-9.602712 -0.27289,-0.580382 -0.59774,-1.292694 -0.72205,-1.582917 -0.12432,-0.290223 -0.42946,-0.860023 -0.67819,-1.266335 -0.2489,-0.406312 -0.55814,-0.92865 -0.68688,-1.160766 -0.48697,-0.874441 -1.09527,-1.732423 -2.22658,-3.137558 -0.64172,-0.797028 -1.29377,-1.623202 -1.44916,-1.83595 -0.15526,-0.212749 -1.24757,-1.250555 -2.42709,-2.306308 -2.48205,-2.221408 -2.43317,-2.181434 -3.10775,-2.537125 -0.28277,-0.149134 -0.56185,-0.328218 -0.61975,-0.397897 -0.27352,-0.328774 -1.52508,-1.061941 -3.06036,-1.793252 -3.50254,-1.668438 -4.75325,-2.170975 -5.88975,-2.366519 -0.45361,-0.07803 -1.07092,-0.270419 -1.37188,-0.427413 -0.30134,-0.157054 -0.95489,-0.286138 -1.45312,-0.286818 -0.49816,-7.12e-4 -1.63373,-0.151609 -2.52334,-0.335397 -2.55534,-0.527846 -8.41518,-0.131249 -11.44989,0.774815 -0.75452,0.225307 -1.53238,0.408167 -1.72873,0.406496 -0.19624,-0.0017 -0.41089,0.08459 -0.47711,0.19177 -0.0662,0.107181 -0.42452,0.26157 -0.79551,0.343069 -0.70568,0.155012 -1.27834,0.412622 -4.06871,1.830443 -2.92747,1.487498 -5.00631,2.989847 -7.41584,5.359521 -2.1695,2.133352 -4.08625,4.289908 -4.08625,4.597395 0,0.07215 -0.31189,0.581311 -0.69284,1.131497 -0.98855,1.427287 -2.9985,5.59399 -3.53688,7.331673 -0.25189,0.812562 -0.54888,1.762312 -0.65927,2.110517 -0.11156,0.348205 -0.38554,1.867819 -0.61015,3.376854 -0.96696,6.495038 -0.14114,12.326092 2.57855,18.215938 0.44557,0.964475 0.81002,1.800804 0.81002,1.858412 0,0.301549 2.38314,3.811136 3.71762,5.474994 3.61201,4.503333 9.0798,8.214718 14.85515,10.084144 2.74303,0.887683 3.21803,0.998949 5.48745,1.284593 2.80019,0.352531 6.14386,0.396717 8.4474,0.111774 z"
         fill="#4f00ff"
         style="display:inline;opacity:1;fill:url(#radialGradient87);fill-opacity:1;stroke:#221e7e;stroke-width:0.81865;stroke-dasharray:none;stroke-opacity:0.415686"
         inkscape:label="logo_face_inner" /><path
         id="logo_eyes"
         d="m 270.3456,52.852668 c -1.67083,-0.168557 -3.70603,-1.652905 -4.7132,-3.437556 -1.7572,-3.113549 -1.79161,-6.981428 -0.0955,-10.68996 0.6301,-1.377166 2.31227,-3.448014 3.40925,-4.196902 1.43456,-0.979268 3.65921,-1.651544 4.84709,-1.464726 5.57881,0.87729 7.88118,7.832291 4.72864,14.28587 -1.73131,3.544613 -5.10239,5.813484 -8.17697,5.503336 z m -32.58533,-0.312933 c -2.09784,-0.908043 -2.65332,-1.24814 -3.5575,-2.178152 -0.93551,-0.962252 -2.01943,-2.866644 -2.98137,-5.238113 -0.29393,-0.723761 -0.37873,-1.540653 -0.36076,-3.462622 0.019,-2.28681 0.0866,-2.666021 0.71454,-4.174249 2.52903,-6.075176 9.79395,-5.767813 13.33539,0.56411 0.99381,1.777038 1.18769,2.406122 1.4516,4.709647 0.48268,4.207542 -1.25479,8.048256 -4.28863,9.483899 -1.29365,0.612061 -3.26965,0.74746 -4.31357,0.295602 z"
         fill="#ffffff"
         style="display:inline;fill:url(#linearGradient80);fill-opacity:1;fill-rule:evenodd;stroke-width:6.18814" /></g><path
       d="m 219.21886,80.714088 q 0,0.709924 -0.17263,1.496592 -0.15335,0.786671 -0.49877,1.573342 -0.34526,0.76748 -0.9018,1.477404 -0.53713,0.709922 -1.32389,1.266345 -0.76749,0.537255 -1.7844,0.863417 -1.01693,0.326176 -2.30245,0.326176 h -8.99875 q -0.70989,0 -1.4966,-0.15352 -0.78663,-0.17271 -1.57331,-0.518068 -0.76749,-0.345358 -1.47744,-0.882602 -0.7099,-0.556439 -1.26632,-1.323909 -0.53711,-0.786673 -0.86345,-1.803588 -0.32609,-1.0361 -0.32609,-2.321638 V 58.207611 h 4.98867 v 22.506428 q 0,0.920985 0.57551,1.477405 0.57548,0.537255 1.43898,0.537255 h 8.99872 q 0.94018,0 1.45825,-0.556439 0.53711,-0.556432 0.53711,-1.458221 v -6.753837 q 0,-0.940167 -0.5563,-1.458215 -0.55632,-0.537255 -1.43906,-0.537255 h -8.99872 v -4.988637 h 8.99872 q 0.70992,0 1.49663,0.17271 0.78666,0.15352 1.55412,0.498885 0.78671,0.345355 1.49658,0.901792 0.70997,0.537255 1.24716,1.323909 0.53713,0.767483 0.86344,1.784399 0.32612,1.01691 0.32612,2.302447 z m 26.57408,-6.868967 q 0,1.036098 -0.36447,2.244883 -0.3645,1.189604 -1.18959,2.225701 -0.8059,1.016918 -2.12977,1.707646 -1.30473,0.690737 -3.18508,0.690737 h -8.99872 v -4.7392 h 8.99872 q 1.01697,0 1.57337,-0.613987 0.55629,-0.633173 0.55629,-1.554149 0,-0.978543 -0.63313,-1.534969 -0.61389,-0.556431 -1.49661,-0.556431 h -8.9987 q -1.01693,0 -1.57336,0.633169 -0.55632,0.613985 -0.55632,1.534964 v 6.964906 q 0,0.997731 0.61386,1.554154 0.63319,0.556434 1.55415,0.556434 h 8.96032 v 4.75839 h -8.9987 q -1.03612,0 -2.2449,-0.364542 -1.18962,-0.36454 -2.22569,-1.170411 -1.01696,-0.825042 -1.70769,-2.129764 -0.69071,-1.323907 -0.69071,-3.204242 v -7.003278 q 0,-1.0361 0.3645,-2.225703 0.36445,-1.208788 1.1704,-2.225696 0.82506,-1.036099 2.12977,-1.726836 1.32386,-0.690737 3.20424,-0.690737 h 8.99872 q 1.03616,0 2.22575,0.364545 1.2088,0.364539 2.22566,1.189592 1.03615,0.805861 1.72688,2.12977 0.69068,1.304719 0.69068,3.185054 z m 25.67234,0 q 0,1.036098 -0.36453,2.244883 -0.36445,1.189604 -1.18959,2.225701 -0.80587,1.016918 -2.12976,1.707646 -1.30468,0.690737 -3.18505,0.690737 h -8.9987 v -4.7392 h 8.9987 q 1.01693,0 1.57336,-0.613987 0.55632,-0.633173 0.55632,-1.554149 0,-0.978543 -0.63319,-1.534969 -0.61384,-0.556431 -1.49658,-0.556431 h -8.99869 q -1.01694,0 -1.57339,0.633169 -0.5563,0.613985 -0.5563,1.534964 v 6.964906 q 0,0.997731 0.61384,1.554154 0.63319,0.556434 1.55417,0.556434 h 8.96032 v 4.75839 h -8.9987 q -1.03615,0 -2.24493,-0.364542 -1.18962,-0.36454 -2.22566,-1.170411 -1.01696,-0.825042 -1.70769,-2.129764 -0.69068,-1.323907 -0.69068,-3.204242 v -7.003278 q 0,-1.0361 0.36445,-2.225703 0.3645,-1.208788 1.1704,-2.225696 0.82511,-1.036099 2.12976,-1.726836 1.32392,-0.690737 3.2043,-0.690737 h 8.9987 q 1.03612,0 2.22571,0.364545 1.20881,0.364539 2.22569,1.189592 1.03607,0.805861 1.72685,2.12977 0.69073,1.304719 0.69073,3.185054 z m 26.22871,6.868967 q 0,0.709924 -0.17262,1.496592 -0.15336,0.786671 -0.49875,1.573342 -0.34534,0.76748 -0.9018,1.477404 -0.53713,0.709922 -1.32397,1.266345 -0.76744,0.537255 -1.78437,0.863417 -1.01688,0.326176 -2.30242,0.326176 h -8.99876 q -0.70992,0 -1.49657,-0.15352 -0.78671,-0.17271 -1.57337,-0.518068 -0.76749,-0.345358 -1.47738,-0.882602 -0.7099,-0.556439 -1.26633,-1.323909 -0.53715,-0.786673 -0.86344,-1.803588 -0.32612,-1.0361 -0.32612,-2.321638 V 58.207611 h 4.98864 v 22.506428 q 0,0.920985 0.57548,1.477405 0.57549,0.537255 1.43904,0.537255 H 290.71 q 0.94015,0 1.45822,-0.556439 0.53713,-0.556432 0.53713,-1.458221 v -6.753837 q 0,-0.940167 -0.55632,-1.458215 -0.55629,-0.537255 -1.43897,-0.537255 h -8.99876 v -4.988637 h 8.99876 q 0.70989,0 1.49657,0.17271 0.78666,0.15352 1.55415,0.498885 0.78665,0.345355 1.4966,0.901792 0.70989,0.537255 1.24716,1.323909 0.53716,0.767483 0.86341,1.784399 0.32615,1.01691 0.32615,2.302447 z m 26.57408,-6.868967 q 0,1.036098 -0.36447,2.244883 -0.36445,1.189604 -1.18954,2.225701 -0.80587,1.016918 -2.12976,1.707646 -1.30473,0.690737 -3.18505,0.690737 h -8.99878 v -4.7392 h 8.99878 q 1.01688,0 1.57331,-0.613987 0.55632,-0.633173 0.55632,-1.554149 0,-0.978543 -0.63319,-1.534969 -0.61384,-0.556431 -1.49658,-0.556431 h -8.99875 q -1.01688,0 -1.57334,0.633169 -0.55629,0.613985 -0.55629,1.534964 v 6.964906 q 0,0.997731 0.61384,1.554154 0.63316,0.556434 1.55417,0.556434 h 8.96037 v 4.75839 h -8.99875 q -1.03607,0 -2.24488,-0.364542 -1.18962,-0.36454 -2.22574,-1.170411 -1.01688,-0.825042 -1.70758,-2.129764 -0.69082,-1.323907 -0.69082,-3.204242 v -7.003278 q 0,-1.0361 0.3645,-2.225703 0.36448,-1.208788 1.1704,-2.225696 0.82504,-1.036099 2.12977,-1.726836 1.32389,-0.690737 3.20421,-0.690737 h 8.99876 q 1.03607,0 2.22566,0.364545 1.20878,0.364539 2.22576,1.189592 1.03607,0.805861 1.72681,2.12977 0.69075,1.304719 0.69075,3.185054 z m 24.617,7.003276 q 0,1.036102 -0.3645,2.244888 -0.36448,1.189595 -1.18959,2.2257 -0.80587,1.016913 -2.12977,1.70765 -1.30467,0.690734 -3.18505,0.690734 h -8.9987 q -1.03612,0 -2.24493,-0.364542 -1.18961,-0.36454 -2.22568,-1.170411 -1.01694,-0.825042 -1.70767,-2.129764 -0.6907,-1.323907 -0.6907,-3.204242 0,-1.036105 0.36447,-2.244891 0.36447,-1.208785 1.1704,-2.225695 0.82509,-1.0361 2.12976,-1.726834 1.3239,-0.690737 3.20427,-0.690737 h 8.99873 v 4.75839 h -8.99873 q -1.01693,0 -1.57339,0.633175 -0.55629,0.613982 -0.55629,1.534967 0,0.978535 0.63316,1.534966 0.65233,0.537252 1.53496,0.537252 h 8.96034 q 1.01694,0 1.57339,-0.613982 0.5563,-0.613982 0.5563,-1.534969 v -6.964901 q 0,-0.978541 -0.61387,-1.554151 -0.59467,-0.575616 -1.51576,-0.575616 h -10.95581 v -4.739213 h 10.95581 q 1.03612,0 2.22571,0.364545 1.20881,0.364539 2.22572,1.189592 1.03612,0.805864 1.72682,2.129773 0.69071,1.304716 0.69071,3.185051 z"
       id="path30"
       style="font-size:6.3501px;font-family:Audiowide;-inkscape-font-specification:'Audiowide, Normal';fill:#007aff;fill-opacity:1;fill-rule:evenodd;stroke:#000000;stroke-width:0.00021089;stroke-miterlimit:3.9"
       aria-label="beebea" /><path
       style="font-size:2.82226px;font-family:Questrial;-inkscape-font-specification:'Questrial, Normal';fill:#007aff;fill-opacity:1;fill-rule:evenodd;stroke:#000000;stroke-width:0.000309404;stroke-miterlimit:3.9"
       d="M 284.86926,101.89291 V 90.331443 h 5.2044 q 1.8512,0 2.91656,1.012945 1.06536,0.995469 1.06536,2.706989 0,1.711512 -1.06536,2.724451 -1.06536,0.995475 -2.91656,0.995475 h -3.89456 v 4.121607 z m 1.30984,-5.344116 h 3.80724 q 1.36222,0 2.0608,-0.663651 0.6986,-0.663648 0.6986,-1.833766 0,-1.152654 -0.6986,-1.816302 -0.69858,-0.663651 -2.0608,-0.663651 h -3.80724 z m 9.65783,5.344116 V 90.331443 h 1.30984 v 10.304037 h 6.30463 v 1.25743 z m 7.94629,0 4.90754,-11.561467 h 1.64163 l 4.90748,11.561467 h -1.44948 l -1.41469,-3.353168 h -5.72831 l -1.4146,3.353168 z m 3.37066,-4.558216 h 4.71542 l -2.35777,-5.641018 z m 9.55301,4.558216 V 90.331443 h 1.51943 l 7.14294,9.727707 v -9.727707 h 1.30983 v 11.561467 h -1.51943 l -7.14294,-9.762625 v 9.762625 z m 12.80146,0 V 90.331443 h 8.50522 v 1.257442 h -7.19538 v 3.87711 h 6.42691 v 1.274908 h -6.42691 v 3.894577 h 7.19538 v 1.25743 z m 13.48254,0 V 91.571424 h -4.03427 v -1.239981 h 9.37837 v 1.239981 h -4.03427 v 10.321486 z"
       id="path31"
       aria-label="PLANET" /><path
       d="m 220.1063,81.601581 q 0,0.709924 -0.17263,1.496595 -0.15336,0.786668 -0.49872,1.573336 -0.34534,0.767483 -0.90182,1.477407 -0.53711,0.709919 -1.3239,1.266347 -0.76749,0.53725 -1.78437,0.863415 -1.01696,0.326178 -2.30247,0.326178 h -8.99876 q -0.70992,0 -1.4966,-0.15352 -0.78663,-0.17271 -1.57334,-0.518068 -0.76743,-0.345357 -1.47741,-0.882604 -0.70989,-0.556437 -1.26629,-1.323909 -0.53719,-0.786668 -0.86345,-1.803586 -0.32617,-1.036092 -0.32617,-2.321629 V 59.095114 h 4.98869 v 22.506429 q 0,0.920984 0.57546,1.477405 0.57551,0.537252 1.43898,0.537252 h 8.99875 q 0.94015,0 1.45825,-0.556434 0.53713,-0.556437 0.53713,-1.458223 v -6.753849 q 0,-0.940163 -0.55632,-1.458212 -0.55632,-0.537255 -1.43906,-0.537255 h -8.99875 v -4.988645 h 8.99875 q 0.7099,0 1.49658,0.17271 0.78673,0.15352 1.55417,0.498888 0.78668,0.345358 1.49658,0.901792 0.70997,0.537255 1.24718,1.323912 0.53711,0.767478 0.86339,1.784393 0.32615,1.01691 0.32615,2.302447 z m 26.57408,-6.86897 q 0,1.036098 -0.3645,2.244883 -0.36445,1.189604 -1.18959,2.225703 -0.80588,1.016916 -2.12977,1.707647 -1.30467,0.690737 -3.18508,0.690737 h -8.99867 v -4.739205 h 8.99867 q 1.01696,0 1.57342,-0.61398 0.55629,-0.633175 0.55629,-1.554151 0,-0.978546 -0.63316,-1.534967 -0.61386,-0.556434 -1.4966,-0.556434 h -8.99867 q -1.01696,0 -1.57342,0.633173 -0.55629,0.613982 -0.55629,1.534958 v 6.964912 q 0,0.997725 0.61383,1.554151 0.63319,0.556431 1.55418,0.556431 h 8.96029 v 4.758395 h -8.99865 q -1.03612,0 -2.24493,-0.364544 -1.18962,-0.36454 -2.22569,-1.170411 -1.01693,-0.825043 -1.70766,-2.129762 -0.69073,-1.323909 -0.69073,-3.204241 v -7.003284 q 0,-1.0361 0.36447,-2.225703 0.36448,-1.208786 1.17043,-2.225698 0.82506,-1.036097 2.12976,-1.726832 1.3239,-0.690736 3.20427,-0.690736 h 8.99867 q 1.03613,0 2.22574,0.364542 1.20878,0.364542 2.22572,1.189595 1.03612,0.805858 1.72683,2.12977 0.6907,1.304719 0.6907,3.185051 z m 25.67228,0 q 0,1.036098 -0.36445,2.244883 -0.3645,1.189604 -1.18959,2.225703 -0.80592,1.016916 -2.12979,1.707647 -1.30467,0.690737 -3.1851,0.690737 h -8.99867 v -4.739205 h 8.99867 q 1.01701,0 1.57341,-0.61398 0.5563,-0.633175 0.5563,-1.554151 0,-0.978546 -0.63314,-1.534967 -0.61386,-0.556434 -1.49663,-0.556434 H 256.485 q -1.01693,0 -1.57336,0.633173 -0.55635,0.613982 -0.55635,1.534958 v 6.964912 q 0,0.997725 0.61386,1.554151 0.63319,0.556431 1.55418,0.556431 h 8.96029 v 4.758395 h -8.99867 q -1.03613,0 -2.24491,-0.364544 -1.18961,-0.36454 -2.22571,-1.170411 -1.01694,-0.825043 -1.70767,-2.129762 -0.69073,-1.323909 -0.69073,-3.204241 v -7.003284 q 0,-1.0361 0.3645,-2.225703 0.36448,-1.208786 1.17043,-2.225698 0.82503,-1.036097 2.12976,-1.726832 1.32387,-0.690736 3.20425,-0.690736 h 8.99867 q 1.03618,0 2.22577,0.364542 1.20878,0.364542 2.22568,1.189595 1.0361,0.805858 1.72683,2.12977 0.69073,1.304719 0.69073,3.185051 z m 26.22874,6.86897 q 0,0.709924 -0.17263,1.496595 -0.15335,0.786668 -0.49875,1.573336 -0.34528,0.767483 -0.90176,1.477407 -0.53713,0.709919 -1.32395,1.266347 -0.76746,0.53725 -1.7844,0.863415 -1.01693,0.326178 -2.30242,0.326178 h -8.99875 q -0.7099,0 -1.49661,-0.15352 -0.7867,-0.17271 -1.5733,-0.518068 -0.76752,-0.345357 -1.47744,-0.882604 -0.7099,-0.556437 -1.26633,-1.323909 -0.53713,-0.786668 -0.86341,-1.803586 -0.32612,-1.0361 -0.32612,-2.321637 V 59.095106 h 4.98861 v 22.506429 q 0,0.920984 0.57551,1.477405 0.57548,0.537252 1.43903,0.537252 h 8.99876 q 0.94017,0 1.45819,-0.556434 0.53716,-0.556437 0.53716,-1.458223 v -6.753849 q 0,-0.940163 -0.55629,-1.458212 -0.55635,-0.537255 -1.43901,-0.537255 h -8.99875 v -4.988645 h 8.99875 q 0.7099,0 1.49658,0.17271 0.78662,0.15352 1.55417,0.498888 0.7866,0.345358 1.49658,0.901792 0.70992,0.537255 1.24716,1.323912 0.5371,0.767478 0.86344,1.784393 0.32609,1.01691 0.32609,2.302447 z m 26.57411,-6.86897 q 0,1.036098 -0.36445,2.244883 -0.3645,1.189604 -1.18956,2.225703 -0.80587,1.016916 -2.12974,1.707647 -1.30481,0.690737 -3.18513,0.690737 h -8.99873 v -4.739205 h 8.99873 q 1.01693,0 1.57336,-0.61398 0.55629,-0.633175 0.55629,-1.554151 0,-0.978546 -0.63316,-1.534967 -0.61386,-0.556434 -1.4966,-0.556434 h -8.99875 q -1.01686,0 -1.57334,0.633173 -0.55629,0.613982 -0.55629,1.534958 v 6.964912 q 0,0.997725 0.61386,1.554151 0.63319,0.556431 1.55415,0.556431 h 8.96037 v 4.758395 h -8.99875 q -1.03607,0 -2.24485,-0.364544 -1.18959,-0.36454 -2.22572,-1.170411 -1.0169,-0.825043 -1.70764,-2.129762 -0.69078,-1.323909 -0.69078,-3.204241 v -7.003284 q 0,-1.0361 0.3645,-2.225703 0.36445,-1.208786 1.17043,-2.225698 0.82495,-1.036097 2.12976,-1.726832 1.32387,-0.690736 3.20419,-0.690736 h 8.99872 q 1.0361,0 2.22572,0.364542 1.20878,0.364542 2.22571,1.189595 1.03613,0.805858 1.7268,2.12977 0.69076,1.304719 0.69076,3.185051 z m 24.61697,7.003281 q 0,1.0361 -0.36445,2.244885 -0.3645,1.189596 -1.18962,2.225704 -0.80589,1.01691 -2.12976,1.707644 -1.3047,0.690739 -3.18511,0.690739 h -8.99867 q -1.03612,0 -2.2449,-0.364544 -1.18959,-0.36454 -2.22569,-1.170411 -1.01696,-0.825043 -1.70766,-2.129762 -0.69074,-1.323909 -0.69074,-3.204241 0,-1.036106 0.36451,-2.244891 0.36447,-1.208788 1.17042,-2.225698 0.82504,-1.036097 2.12977,-1.726831 1.32386,-0.69074 3.20424,-0.69074 h 8.99867 v 4.75839 h -8.99867 q -1.01694,0 -1.57336,0.633172 -0.55635,0.613988 -0.55635,1.534969 0,0.978538 0.63319,1.53497 0.65235,0.537249 1.53498,0.537249 h 8.96026 q 1.01702,0 1.57342,-0.613982 0.55629,-0.613985 0.55629,-1.534969 v -6.964904 q 0,-0.978541 -0.61383,-1.554148 -0.59467,-0.575619 -1.51582,-0.575619 h -10.95575 v -4.739208 h 10.95575 q 1.03615,0 2.22579,0.36454 1.20876,0.364542 2.22566,1.189598 1.03616,0.805858 1.72683,2.129767 0.69073,1.304719 0.69073,3.185051 z"
       id="text1"
       style="font-size:6.3501px;font-family:Audiowide;-inkscape-font-specification:'Audiowide, Normal';fill:#ffffff;fill-rule:evenodd;stroke:#000000;stroke-width:0.00021089;stroke-miterlimit:3.9"
       aria-label="beebea" /><path
       style="font-size:2.82226px;font-family:Questrial;-inkscape-font-specification:'Questrial, Normal';fill:#ffffff;fill-rule:evenodd;stroke:#000000;stroke-width:0.000309404;stroke-miterlimit:3.9"
       d="M 285.75667,102.7804 V 91.218939 h 5.20443 q 1.8512,0 2.91655,1.012941 1.06533,0.99547 1.06533,2.70699 0,1.711512 -1.06533,2.724451 -1.06535,0.995475 -2.91655,0.995475 h -3.89459 v 4.121604 z m 1.30984,-5.344113 h 3.80724 q 1.36225,0 2.06085,-0.663651 0.69855,-0.663651 0.69855,-1.833766 0,-1.152654 -0.69855,-1.816302 -0.6986,-0.663648 -2.06085,-0.663648 h -3.80724 z m 9.65786,5.344113 V 91.218939 h 1.30983 v 10.304031 h 6.30464 v 1.25743 z m 7.94626,0 4.90757,-11.561461 h 1.64165 l 4.90748,11.561461 h -1.44953 l -1.41466,-3.353165 h -5.72834 l -1.4146,3.353165 z m 3.37068,-4.55821 h 4.71537 l -2.35771,-5.641022 z m 9.55301,4.55821 V 91.218939 h 1.51946 l 7.14291,9.727701 v -9.727701 h 1.30986 V 102.7804 h -1.51943 l -7.14294,-9.762623 v 9.762623 z m 12.80147,0 V 91.218939 h 8.50519 v 1.257442 h -7.19533 v 3.877107 h 6.42691 v 1.274908 h -6.42691 v 3.894574 h 7.19533 v 1.25743 z m 13.48254,0 V 92.45892 h -4.03427 v -1.239981 h 9.3784 v 1.239981 h -4.0343 v 10.32148 z"
       id="text2"
       aria-label="PLANET" /></g></svg>
