<svg width="2560" height="1400" version="1.1" viewBox="0 0 677.33 370.42" xml:space="preserve" xmlns="http://www.w3.org/2000/svg" xmlns:xlink="http://www.w3.org/1999/xlink"><defs><linearGradient id="linearGradient3"><stop stop-color="#0010a8" offset="0"/><stop stop-color="#007aff" offset="1"/></linearGradient><radialGradient id="radialGradient4" cx="106.99" cy="61.812" r="25.59" gradientTransform="matrix(1 0 0 .64466 2.1565 24.143)" gradientUnits="userSpaceOnUse" xlink:href="#linearGradient3"/><radialGradient id="radialGradient9" cx="107.06" cy="65.188" r="3.0672" gradientTransform="matrix(1 0 0 1.2919 2.1565 -16.852)" gradientUnits="userSpaceOnUse"><stop stop-color="#e9a4f3" offset=".1292"/><stop stop-color="#000ca4" offset="1"/></radialGradient><filter id="filter36" x="-.35298" y="-.53509" width="1.7059" height="2.0701" color-interpolation-filters="sRGB"><feGaussianBlur result="result3" stdDeviation="7.754327"/><feColorMatrix result="result7" values="1 0 0 0 0 0 1 0 0 0 0 0 1 0 0 0 0 0 50 0 "/><feComposite in2="SourceGraphic" operator="in" result="result9"/><feComposite in="result9" in2="result7" k1="0.5" k3="0.5" operator="arithmetic" result="result1"/><feBlend in="SourceGraphic" in2="result1" mode="screen" result="result5"/><feBlend in="result5" in2="result5" mode="darken" result="result6"/><feComposite in2="SourceGraphic" operator="in" result="result8"/></filter><filter id="filter39" x="-.7109" y="-1.0777" width="2.4218" height="3.1553" color-interpolation-filters="sRGB"><feGaussianBlur result="result3" stdDeviation="15.174351"/><feColorMatrix result="result7" values="1 0 0 0 0 0 1 0 0 0 0 0 1 0 0 0 0 0 50 0 "/><feComposite in2="SourceGraphic" operator="in" result="result9"/><feComposite in="result9" in2="result7" k1="0.5" k3="0.5" operator="arithmetic" result="result1"/><feBlend in="SourceGraphic" in2="result1" mode="screen" result="result5"/><feBlend in="result5" in2="result5" mode="darken" result="result6"/><feComposite in2="SourceGraphic" operator="in" result="fbSourceGraphic"/><feColorMatrix in="fbSourceGraphic" result="fbSourceGraphicAlpha" values="0 0 0 -1 0 0 0 0 -1 0 0 0 0 -1 0 0 0 0 1 0"/><feGaussianBlur in="fbSourceGraphic" result="blur" stdDeviation="0.5 0.5"/></filter><linearGradient id="linearGradient80" x1="109.31" x2="109.36" y1="50.963" y2="54.171" gradientUnits="userSpaceOnUse" xlink:href="#linearGradient3"/><filter id="filter80" x="-.014006" y="-.021726" width="1.028" height="1.0435" color-interpolation-filters="sRGB"><feGaussianBlur stdDeviation="0.29867989"/></filter><filter id="filter81" x="-.088113" y="-.067883" width="1.1762" height="1.1358" color-interpolation-filters="sRGB"><feGaussianBlur stdDeviation="0.22043407"/></filter><radialGradient id="radialGradient87" cx="107.1" cy="54.065" r="5.2935" gradientTransform="matrix(1.7571 .91962 -.58843 1.1243 -49.27 -105.21)" gradientUnits="userSpaceOnUse"><stop stop-color="#ebeae6" offset=".42523"/><stop stop-color="#3d34b9" stop-opacity=".36461" offset="1"/></radialGradient><radialGradient id="radialGradient2" cx="338.67" cy="185.21" r="338.73" gradientTransform="matrix(1 0 0 .54696 0 83.906)" gradientUnits="userSpaceOnUse"><stop stop-color="#a500b6" offset="0"/><stop stop-color="#0300ff" offset=".25436"/><stop stop-color="#0135ff" stop-opacity=".27983" offset=".58393"/><stop stop-color="#007aff" stop-opacity="0" offset="1"/></radialGradient></defs><rect width="677.33" height="370.42" ry="2.6717" fill="url(#radialGradient2)" fill-rule="evenodd" opacity=".39837" stroke="#ffffff" stroke-miterlimit="3.9" stroke-opacity=".41531" stroke-width=".13229"/><g transform="matrix(3.4348 0 0 3.4348 -36.232 -34.791)"><path d="m109.6 81.445c.15662-.07036.43946-.29342.60668-.47845.0812-.08986.2051-.16326.41136-.24372.16234-.06332.36746-.14748.45581-.18701.0884-.03954.19278-.08545.23206-.10204 1.5834-.66894 1.4073-.56797 1.9738-1.1316.27185-.2705.91667-.90952 1.4329-1.42.51626-.51052.96903-.97085 1.0062-1.023.082-.11504.0847-.2.0123-.38101-.0918-.22938-.33757-.36839-.80157-.45331-.14726-.02695-.37217-.07253-.4998-.10129-.58162-.13105-1.105-.24256-1.2816-.27309-.224-.03871-.43185-.1018-.49186-.14929-.0314-.02481-.0205-.07583.0426-.20062.0919-.18188.20148-.27095.29624-.24088.0331.01051.18876.04376.34584.07389.2715.05207.46621.09149 1.0353.2096.54435.11298.82744.17399.96391.20775.0785.01943.28242.04339.45306.05325.27718.01602.32591.0091.45695-.06451.21762-.12231.31204-.31606.43143-.8853.0338-.1613.0955-.38493.21517-.78035.0373-.12313.0678-.24864.0678-.2789 0-.03025.0223-.13033.0495-.22238s.085-.30391.12836-.47081c.0434-.1669.10037-.37575.12665-.46411.0548-.1845.14726-.53607.21586-.8211.12593-.52325.16228-.66462.18361-.71401.0127-.02946.0433-.14191.068-.2499.0247-.108.0792-.32416.12101-.48037.0872-.32559.0744-.4672-.0565-.62272-.14172-.16842-.35747-.232-.70422-.20753-.16176.01142-.40629.04452-.54344.07356-.13712.02906-.47424.09525-.74913.14713s-.5721.10888-.66045.12669c-.1884.03796-.31235-.02732-.36783-.19378-.0595-.17847.003-.20439.83193-.34398.24543-.04135.5346-.09178.6426-.11208s.32487-.05838.48196-.08462c.15708-.02625.34698-.06572.422-.08774.19006-.05577.40807-.26241.45304-.4294.041-.15222.002-.39331-.079-.49201-.0272-.03296-.0863-.13221-.13153-.22057-.0452-.08836-.12627-.24098-.18014-.33915-.0539-.09817-.15679-.28923-.22869-.42455-.20236-.38085-.17214-.44245.12248-.24968.10617.06947.2304.14121.27607.15944.0456.01823.15007.07837.23205.13367.082.0553.37393.23284.64883.39453.27489.16169.52389.30818.55335.32552.0295.01735.16601.08552.30345.1515.13744.06599.36236.17848.4998.24999.39556.20579 1.1102.52681 1.1736.52716.0221.000122.0883.0255.14729.05642.21138.11092.93352.31514 1.428.40384 1.6841.3021 3.0102-.09421 4.2248-1.2626.30094-.2895.80097-.90246 1.0333-1.2667.0696-.10901.1692-.26246.22149-.341.1807-.27142.85501-1.5829.90862-1.7672.0142-.04909.08-.22581.14594-.3927.30516-.77177.50934-1.3107.52751-1.3923.0109-.04909.0433-.16154.072-.2499s.11208-.35343.18537-.58905c.21428-.68901.29719-.92011.34622-.96501.0742-.06797.74476-.52413 1.2598-.85705.17672-.11422.40967-.26709.51766-.33972s.3811-.2535.6069-.40193c.22581-.14843.51332-.34722.6389-.44175.12559-.09453.31837-.23382.4284-.30952.11004-.07571.30984-.24439.444-.37485.28089-.27314.77353-.84693.77353-.90096 0-.02012.0462-.09588.10272-.16836.15994-.20517.41971-.73831.56868-1.1671.17966-.51714.23434-.9176.2315-1.6958-.002-.40252-.0195-.80415-.04-.89251-.0896-.38585-.12457-.50384-.25943-.87466-.2241-.61618-.57482-1.1986-1.0222-1.6976-.24384-.27193-.76792-.73424-.98242-.86665-.63451-.39166-1.1869-.61617-1.8932-.76941-.44353-.09623-1.5749-.10954-1.9095-.02246-.11261.02931-.47785.11825-.81165.19764-.62425.14848-1.1914.30453-2.0528.56483-.12764.03857-.35254.10475-.49981.14706-.14726.04232-.33201.09785-.41056.1234-.0785.02555-.27132.0827-.4284.127-.15708.04429-.43951.13484-.62763.20121s-.3568.12122-.37485.12188c-.0181.000679-.0971.03225-.17563.07019-.0785.03793-.15851.06953-.1777.07019-.0192.000679-.17985.05872-.35701.12902-.17715.07029-.37833.14894-.44705.17476-.19985.07509-.55669.22856-1.0174.43761-.23563.1069-.47661.21614-.53551.24276-.0589.02661-.23222.10552-.38513.17534-.15294.06982-.28631.12694-.29639.12694-.067 0-1.6961.80893-2.2281 1.1064-.14726.08235-.29988.16426-.33915.18204-.0393.01777-.0955.04758-.12496.06624-.0295.01866-.27846.16404-.55335.32307s-.59619.35142-.71401.42753c-.82681.53419-1.122.69039-1.1872.62823-.005-.0047.0229-.21608.0621-.46964.16432-1.0646.021-2.4707-.33808-3.317-.025-.0589-.0889-.21764-.14203-.35273-.34475-.87675-1.1887-1.9878-1.9292-2.5397-.0786-.05854-.18297-.1433-.23206-.18835-.0491-.04505-.17536-.13341-.28061-.19635-.10524-.06294-.24983-.14939-.3213-.19212-.22707-.13574-.76491-.39325-.98675-.47244-.11781-.04205-.24634-.09054-.2856-.10774-.0978-.04288-.58252-.16605-.92822-.2359-.354-.07153-1.5776-.10871-1.9278-.05857-.47089.06742-.92225.15294-.98535.18671-.0347.01858-.0906.03377-.12402.03377-.0335 0-.12693.03015-.20763.06701-.0807.03685-.2431.10263-.36091.14616-.82715.30564-1.7038.89139-2.3405 1.5638-.41447.43773-.51484.56068-.76434.93623-.2175.32737-.69722 1.2709-.69722 1.3713 0 .03376-.0175.09408-.0389.13405-.0576.10759-.1929.60729-.26909.99366-.0982.49808-.0967 1.9104.002 2.3833.0862.41119.0628.452-.17613.30677-.0921-.05597-.23426-.13929-.31593-.18517-.0817-.04587-.25292-.15202-.38055-.23589-.41908-.27538-.62023-.40039-.96391-.59908-.36745-.21242-.9491-.53579-1.0353-.57559-.0294-.01359-.2142-.11225-.41055-.21924-.38857-.21173-.75053-.39267-1.2495-.62463-.17672-.08215-.43376-.20305-.57121-.26867-.13744-.06562-.35347-.16219-.48006-.21461-.12659-.05241-.3756-.16372-.55336-.24733-.17775-.08361-.44368-.20451-.59094-.26865-.14727-.06414-.28382-.12837-.30346-.14273-.01963-.01437-.25258-.10341-.51765-.19788-.26508-.09448-.49722-.1852-.51587-.20163-.01866-.01643-.05639-.02987-.08385-.02987s-.10056-.02337-.16244-.05196c-.06187-.02857-.17676-.07422-.2553-.10143-.38805-.13443-.6969-.23689-.87461-.29012-.35769-.10716-.65682-.19555-.96391-.28485-.1669-.04853-.47214-.13796-.67831-.19872-.20617-.06077-.48731-.1436-.62476-.18406-.13745-.04047-.3222-.09523-.41055-.1217-.31578-.09459-.69868-.18956-.84944-.2107-.08431-.01182-.1807-.03589-.2142-.05348-.09416-.04945-.67689-.17368-.93557-.19945-.55043-.05483-1.3974-.0048-1.8386.10856-1.3647.35074-2.499 1.1669-3.2198 2.3167-.29075.46382-.60055 1.2428-.68982 1.7346-.02317.12763-.05569.30435-.07228.3927-.05159.2748-.03897 1.1223.0217 1.4573.13225.73043.37471 1.4062.67475 1.8807.34562.54655.37385.58272.83575 1.071.33756.35684 1.0365.89239 1.6774 1.2852.08177.05013 1.281.84142 1.647 1.0868.54105.36268.74323.50688.79558.56742.02825.03266.12792.31644.22149.6306.21531.72291.40218 1.2943.57206 1.7493.07331.19635.17719.47749.23085.62476.14157.38857.78879 1.7709.89426 1.91.01489.01965.05893.09193.09785.16065.79218 1.3987 1.8856 2.4807 2.9294 2.8986.63722.25516.78355.28321 1.5858.30403.66187.01718.77578.01139 1.071-.05446.1817-.04053.3866-.08342.45532-.09531.16868-.02921.90725-.26133 1.1067-.34783.0884-.03832.19278-.08357.23205-.10056.0393-.017.17583-.07259.30345-.12355.31089-.12414.33085-.13429 1.48-.75308.92544-.4983 1.6138-.89074 1.8458-1.0522.16268-.11325.18246-.01555.0511.25254-.1193.24356-.39421.76832-.53793 1.0268-.16675.29992-.1594.48376.0277.6941.14351.1613.37379.24089 1.0067.34792.25526.04316.54444.09369.64261.11227.0981.01857.32309.0561.49981.08337.32231.04972.49518.10006.57712.16806.0342.02839.027.07148-.0327.19429-.0838.17247-.14304.19128-.38398.1219-.0686-.01974-.26128-.06101-.42818-.09169-.16689-.03069-.47213-.08774-.67831-.12681-1.0209-.19349-1.2967-.16755-1.5267.14359-.1079.14594-.10417.37562.0123.75606.0506.16545.14626.5177.2125.78277.0662.26508.17745.6908.24716.94606.0697.25526.15237.56853.18369.69616.0313.12763.0741.28828.0951.357s.0581.21331.0824.3213.1118.43733.19433.73186c.0825.29453.17224.63636.19936.75963.0668.30348.14856.44937.31516.56211.2716.18379.44849.16861 1.9125-.16413.18653-.0424.4516-.09865.58905-.12503.40776-.07824.77204-.15653.7974-.17137.0619-.03621.18497.0601.2854.22332.13665.22208.11137.26007-.21411.32179-.12435.02358-.3064.06547-.40458.09307-.18396.05174-.52721.12753-.96391.21284-.47613.09301-1.0165.22961-1.1398.28816-.14559.06909-.29866.25659-.3276.40129-.0402.20103.0663.33944.84867 1.1029.41888.40874.85924.83969.9786.95766.82689.81727 1.2113 1.1684 1.3456 1.2292.083.03755.3277.14274.54369.23376.21599.09101.42483.17986.46411.19745.0994.04449.97234.40672 1.1246.46662.0688.02704.24067.15644.38208.28754.33127.30709.56214.42091.85731.42264.13469.000941.275-.02254.357-.05938z" fill="#eee9d6" filter="url(#filter39)"/><path id="logo_outline" d="m109.6 81.445c.15662-.07036.43946-.29342.60668-.47845.0812-.08986.2051-.16326.41136-.24372.16234-.06332.36746-.14748.45581-.18701.0884-.03954.19278-.08545.23206-.10204 1.5834-.66894 1.4073-.56797 1.9738-1.1316.27185-.2705.91667-.90952 1.4329-1.42.51626-.51052.96903-.97085 1.0062-1.023.082-.11504.0847-.2.0123-.38101-.0918-.22938-.33757-.36839-.80157-.45331-.14726-.02695-.37217-.07253-.4998-.10129-.58162-.13105-1.105-.24256-1.2816-.27309-.224-.03871-.43185-.1018-.49186-.14929-.0314-.02481-.0205-.07583.0426-.20062.0919-.18188.20148-.27095.29624-.24088.0331.01051.18876.04376.34584.07389.2715.05207.46621.09149 1.0353.2096.54435.11298.82744.17399.96391.20775.0785.01943.28242.04339.45306.05325.27718.01602.32591.0091.45695-.06451.21762-.12231.31204-.31606.43143-.8853.0338-.1613.0955-.38493.21517-.78035.0373-.12313.0678-.24864.0678-.2789 0-.03025.0223-.13033.0495-.22238s.085-.30391.12836-.47081c.0434-.1669.10037-.37575.12665-.46411.0548-.1845.14726-.53607.21586-.8211.12593-.52325.16228-.66462.18361-.71401.0127-.02946.0433-.14191.068-.2499.0247-.108.0792-.32416.12101-.48037.0872-.32559.0744-.4672-.0565-.62272-.14172-.16842-.35747-.232-.70422-.20753-.16176.01142-.40629.04452-.54344.07356-.13712.02906-.47424.09525-.74913.14713s-.5721.10888-.66045.12669c-.1884.03796-.31235-.02732-.36783-.19378-.0595-.17847.003-.20439.83193-.34398.24543-.04135.5346-.09178.6426-.11208s.32487-.05838.48196-.08462c.15708-.02625.34698-.06572.422-.08774.19006-.05577.40807-.26241.45304-.4294.041-.15222.002-.39331-.079-.49201-.0272-.03296-.0863-.13221-.13153-.22057-.0452-.08836-.12627-.24098-.18014-.33915-.0539-.09817-.15679-.28923-.22869-.42455-.20236-.38085-.17214-.44245.12248-.24968.10617.06947.2304.14121.27607.15944.0456.01823.15007.07837.23205.13367.082.0553.37393.23284.64883.39453.27489.16169.52389.30818.55335.32552.0295.01735.16601.08552.30345.1515.13744.06599.36236.17848.4998.24999.39556.20579 1.1102.52681 1.1736.52716.0221.000122.0883.0255.14729.05642.21138.11092.93352.31514 1.428.40384 1.6841.3021 3.0102-.09421 4.2248-1.2626.30094-.2895.80097-.90246 1.0333-1.2667.0696-.10901.1692-.26246.22149-.341.1807-.27142.85501-1.5829.90862-1.7672.0142-.04909.08-.22581.14594-.3927.30516-.77177.50934-1.3107.52751-1.3923.0109-.04909.0433-.16154.072-.2499s.11208-.35343.18537-.58905c.21428-.68901.29719-.92011.34622-.96501.0742-.06797.74476-.52413 1.2598-.85705.17672-.11422.40967-.26709.51766-.33972s.3811-.2535.6069-.40193c.22581-.14843.51332-.34722.6389-.44175.12559-.09453.31837-.23382.4284-.30952.11004-.07571.30984-.24439.444-.37485.28089-.27314.77353-.84693.77353-.90096 0-.02012.0462-.09588.10272-.16836.15994-.20517.41971-.73831.56868-1.1671.17966-.51714.23434-.9176.2315-1.6958-.002-.40252-.0195-.80415-.04-.89251-.0896-.38585-.12457-.50384-.25943-.87466-.2241-.61618-.57482-1.1986-1.0222-1.6976-.24384-.27193-.76792-.73424-.98242-.86665-.63451-.39166-1.1869-.61617-1.8932-.76941-.44353-.09623-1.5749-.10954-1.9095-.02246-.11261.02931-.47785.11825-.81165.19764-.62425.14848-1.1914.30453-2.0528.56483-.12764.03857-.35254.10475-.49981.14706-.14726.04232-.33201.09785-.41056.1234-.0785.02555-.27132.0827-.4284.127-.15708.04429-.43951.13484-.62763.20121s-.3568.12122-.37485.12188c-.0181.000679-.0971.03225-.17563.07019-.0785.03793-.15851.06953-.1777.07019-.0192.000679-.17985.05872-.35701.12902-.17715.07029-.37833.14894-.44705.17476-.19985.07509-.55669.22856-1.0174.43761-.23563.1069-.47661.21614-.53551.24276-.0589.02661-.23222.10552-.38513.17534-.15294.06982-.28631.12694-.29639.12694-.067 0-1.6961.80893-2.2281 1.1064-.14726.08235-.29988.16426-.33915.18204-.0393.01777-.0955.04758-.12496.06624-.0295.01866-.27846.16404-.55335.32307s-.59619.35142-.71401.42753c-.82681.53419-1.122.69039-1.1872.62823-.005-.0047.0229-.21608.0621-.46964.16432-1.0646.021-2.4707-.33808-3.317-.025-.0589-.0889-.21764-.14203-.35273-.34475-.87675-1.1887-1.9878-1.9292-2.5397-.0786-.05854-.18297-.1433-.23206-.18835-.0491-.04505-.17536-.13341-.28061-.19635-.10524-.06294-.24983-.14939-.3213-.19212-.22707-.13574-.76491-.39325-.98675-.47244-.11781-.04205-.24634-.09054-.2856-.10774-.0978-.04288-.58252-.16605-.92822-.2359-.354-.07153-1.5776-.10871-1.9278-.05857-.47089.06742-.92225.15294-.98535.18671-.0347.01858-.0906.03377-.12402.03377-.0335 0-.12693.03015-.20763.06701-.0807.03685-.2431.10263-.36091.14616-.82715.30564-1.7038.89139-2.3405 1.5638-.41447.43773-.51484.56068-.76434.93623-.2175.32737-.69722 1.2709-.69722 1.3713 0 .03376-.0175.09408-.0389.13405-.0576.10759-.1929.60729-.26909.99366-.0982.49808-.0967 1.9104.002 2.3833.0862.41119.0628.452-.17613.30677-.0921-.05597-.23426-.13929-.31593-.18517-.0817-.04587-.25292-.15202-.38055-.23589-.41908-.27538-.62023-.40039-.96391-.59908-.36745-.21242-.9491-.53579-1.0353-.57559-.0294-.01359-.2142-.11225-.41055-.21924-.38857-.21173-.75053-.39267-1.2495-.62463-.17672-.08215-.43376-.20305-.57121-.26867-.13744-.06562-.35347-.16219-.48006-.21461-.12659-.05241-.3756-.16372-.55336-.24733-.17775-.08361-.44368-.20451-.59094-.26865-.14727-.06414-.28382-.12837-.30346-.14273-.01963-.01437-.25258-.10341-.51765-.19788-.26508-.09448-.49722-.1852-.51587-.20163-.01866-.01643-.05639-.02987-.08385-.02987s-.10056-.02337-.16244-.05196c-.06187-.02857-.17676-.07422-.2553-.10143-.38805-.13443-.6969-.23689-.87461-.29012-.35769-.10716-.65682-.19555-.96391-.28485-.1669-.04853-.47214-.13796-.67831-.19872-.20617-.06077-.48731-.1436-.62476-.18406-.13745-.04047-.3222-.09523-.41055-.1217-.31578-.09459-.69868-.18956-.84944-.2107-.08431-.01182-.1807-.03589-.2142-.05348-.09416-.04945-.67689-.17368-.93557-.19945-.55043-.05483-1.3974-.0048-1.8386.10856-1.3647.35074-2.499 1.1669-3.2198 2.3167-.29075.46382-.60055 1.2428-.68982 1.7346-.02317.12763-.05569.30435-.07228.3927-.05159.2748-.03897 1.1223.0217 1.4573.13225.73043.37471 1.4062.67475 1.8807.34562.54655.37385.58272.83575 1.071.33756.35684 1.0365.89239 1.6774 1.2852.08177.05013 1.281.84142 1.647 1.0868.54105.36268.74323.50688.79558.56742.02825.03266.12792.31644.22149.6306.21531.72291.40218 1.2943.57206 1.7493.07331.19635.17719.47749.23085.62476.14157.38857.78879 1.7709.89426 1.91.01489.01965.05893.09193.09785.16065.79218 1.3987 1.8856 2.4807 2.9294 2.8986.63722.25516.78355.28321 1.5858.30403.66187.01718.77578.01139 1.071-.05446.1817-.04053.3866-.08342.45532-.09531.16868-.02921.90725-.26133 1.1067-.34783.0884-.03832.19278-.08357.23205-.10056.0393-.017.17583-.07259.30345-.12355.31089-.12414.33085-.13429 1.48-.75308.92544-.4983 1.6138-.89074 1.8458-1.0522.16268-.11325.18246-.01555.0511.25254-.1193.24356-.39421.76832-.53793 1.0268-.16675.29992-.1594.48376.0277.6941.14351.1613.37379.24089 1.0067.34792.25526.04316.54444.09369.64261.11227.0981.01857.32309.0561.49981.08337.32231.04972.49518.10006.57712.16806.0342.02839.027.07148-.0327.19429-.0838.17247-.14304.19128-.38398.1219-.0686-.01974-.26128-.06101-.42818-.09169-.16689-.03069-.47213-.08774-.67831-.12681-1.0209-.19349-1.2967-.16755-1.5267.14359-.1079.14594-.10417.37562.0123.75606.0506.16545.14626.5177.2125.78277.0662.26508.17745.6908.24716.94606.0697.25526.15237.56853.18369.69616.0313.12763.0741.28828.0951.357s.0581.21331.0824.3213.1118.43733.19433.73186c.0825.29453.17224.63636.19936.75963.0668.30348.14856.44937.31516.56211.2716.18379.44849.16861 1.9125-.16413.18653-.0424.4516-.09865.58905-.12503.40776-.07824.77204-.15653.7974-.17137.0619-.03621.18497.0601.2854.22332.13665.22208.11137.26007-.21411.32179-.12435.02358-.3064.06547-.40458.09307-.18396.05174-.52721.12753-.96391.21284-.47613.09301-1.0165.22961-1.1398.28816-.14559.06909-.29866.25659-.3276.40129-.0402.20103.0663.33944.84867 1.1029.41888.40874.85924.83969.9786.95766.82689.81727 1.2113 1.1684 1.3456 1.2292.083.03755.3277.14274.54369.23376.21599.09101.42483.17986.46411.19745.0994.04449.97234.40672 1.1246.46662.0688.02704.24067.15644.38208.28754.33127.30709.56214.42091.85731.42264.13469.000941.275-.02254.357-.05938z" fill="none" filter="url(#filter36)" stroke="#221e7e" stroke-opacity=".41531" stroke-width=".13229"/><path d="m119.55 62.758c1.2756-.06021 1.7936-.10774 2.8142-.25824.77104-.1137 1.0962-.17189 1.4157-.25335.15193-.03873.34656-.08222.43251-.09665.16974-.02852 1.3068-.38533 1.3631-.42777.019-.01431.0889-.04133.15538-.06003.24709-.06952.68099-.23327.92273-.34822.13716-.06523.25887-.1186.27045-.1186.0396 0 .51567-.20638 1.1031-.47821.32285-.1494.77347-.35634 1.0014-.45987.22789-.10352.49206-.24361.58702-.31129.095-.06769.22259-.1514.28362-.18603.0611-.03463.19312-.1168.29352-.18261.33546-.21991 1.4063-.88475 1.4251-.88475.0102 0 .1-.05468.19943-.12151.0995-.06683.30524-.20231.45717-.30107.95074-.618 1.5689-1.2227 1.9059-1.8642.0481-.09163.10684-.18882.13049-.21599.0236-.02717.052-.07904.0631-.11526.011-.03622.0614-.16959.11196-.29638.0506-.12678.11268-.31943.13808-.4281s.0623-.25686.082-.32931c.0431-.15878.0466-1.2964.005-1.4819-.12956-.57074-.18172-.72425-.38478-1.1324-.32743-.65818-.76569-1.1591-1.397-1.5967-.36336-.25187-.37583-.25856-.96499-.51749-.0759-.03339-.32458-.10811-.55249-.16604-.39746-.10104-.44181-.10539-1.0877-.10663-.59-.0011-.71394.0081-1.0014.07512-.18042.04203-.377.09691-.43685.12196-.0599.02504-.14531.04619-.18992.04699-.0446.00082-.14326.02357-.21923.05061-.0759.02704-.20804.06282-.2935.07953-.27513.05376-.60264.13609-.6632.1667-.0324.01639-.12564.03855-.20719.04927-.0816.01071-.20265.03922-.26911.06335-.16764.06086-.54221.17261-.70787.2112-.44781.10429-.57546.13744-.6299.16357-.0334.01603-.17725.0627-.31969.10374-.28858.08312-.41237.12362-.69127.22609-.10482.03852-.21189.07003-.23793.07003-.026 0-.11897.03124-.20652.06941-.25427.11089-.35937.15305-.46993.18852-.057.01828-.25898.09502-.4489.17054-.18991.07553-.50845.20128-.70786.27947-.19941.07818-.40919.16567-.46617.19441-.057.02874-.1245.05233-.15006.05245-.0255.000109-.0877.02116-.13811.04678-.0895.04547-.59311.26991-.83406.3717-.0664.02807-.1597.07008-.20718.09334-.60364.29567-.94052.46498-1.2431.62478-.19942.10531-.45579.23854-.56975.29607-.11395.05753-.32373.16428-.46615.23722-.14245.07294-.39883.20268-.56976.28829-.17092.08561-.41598.22469-.54457.30906-.2293.15044-.29801.19129-.63498.37745-.0919.05078-.19044.10586-.21892.12241-.0285.01655-.13726.0772-.24172.1348-.34496.19022-.6469.42928-.92064.72893-.14857.16263-.30131.34515-.33945.4056-.0382.06045-.15663.23288-.26334.38318-.2886.4065-.52635.83152-.7792 1.3929-.26985.59922-.33993.80296-.49418 1.437-.0955.39246-.0973 1.104-.004 1.4165.18166.6058.49638.97089 1.0639 1.2342.18025.08361.43881.17949.57457.21306 1.1434.2827 2.236.34325 4.3732.24238zm-10.463 17.706c-.0369-.0147-.13501-.09114-.21817-.16987-.20563-.19464-.32953-.28496-.44-.32075-.0511-.01659-.16665-.06385-.25665-.10505-.09-.04119-.23727-.10309-.32726-.13755-.09-.03446-.21272-.08343-.27271-.10882-.06-.0254-.26607-.1126-.45793-.19377l-.34884-.14759-.96839-.95452c-.80779-.79621-.9693-.96794-.97385-1.0355-.005-.07182.007-.08513.10363-.118.06-.02036.19499-.05461.29998-.07607.105-.02147.30136-.06399.43635-.0945.13501-.0305.32523-.07271.42272-.09375.0975-.02103.28772-.06373.42271-.09485.35237-.08122.87758-.17191 1.4226-.24564.63561-.08598 2.0024-.09401 2.4773-.01455.11999.02008.32248.04428.44998.05378.12749.0095.26862.02872.31363.04268.045.01397.16158.03764.25908.05259s.22636.03932.28635.05414c.06.01483.23181.05231.38181.0833.15.03101.32795.07004.39545.08677.0674.01675.20249.04673.29998.06666.0975.01992.24477.05003.32727.06687.27601.05636.53149.14618.53948.18969.0101.05433-1.9459 1.9755-2.0854 2.0484-.0573.02991-.23576.10852-.3968.17474-.16103.06621-.31443.13256-.34089.14745-.0265.01489-.12789.05898-.22539.09799s-.23249.09566-.29998.12587c-.0674.03022-.14728.06512-.17727.07757-.3016.1252-.38988.17919-.55736.34088-.21965.21206-.34054.26159-.4914.20136zm-5.958-5.5859c-.0862-.03117-.1157-.0922-.22627-.46824-.045-.15326-.10175-.34465-.12595-.42531-.0723-.24074-.17748-.60514-.22446-.77729-.0242-.08873-.0593-.20092-.0778-.24932-.0186-.04839-.0485-.14739-.0662-.21999-.0179-.0726-.0635-.23759-.10141-.36665-.038-.12906-.0826-.29163-.0992-.36128-.0166-.06964-.0386-.13882-.0489-.15374-.0268-.03899-.24433-.80277-.28623-1.0049-.0374-.18016-.009-.27458.0801-.26405.0244.0028.21304.03364.4192.06834.20615.03469.46058.07394.56541.08721.10482.01327.28816.04438.40742.06912.31286.06493.95263.16669 1.048.16668.0448-2e-6.15348.01966.24148.04368s.22101.04369.29558.04369c.0745 0 .2079.01913.2963.04255.0883.0234.28266.05613.43168.07274.14902.0166.28611.03863.30467.04895.0186.01032.26329.03739.54388.06016.2806.02276.64217.05755.80351.07729.32509.03978.21532-.01929 1.1493.61856.13873.09475.30358.2026.36632.23967.0627.03706.15669.10144.20878.14304.1568.12525.2328.10348.65973-.18903.21249-.14557.55752-.38106.76675-.5233l.38043-.25862.33663-.04968c.18514-.02732.5018-.06173.70367-.07647s.37787-.03282.39112-.04018c.0132-.0074.19274-.02829.39889-.04653.47091-.04165.87782-.1039 1.5482-.23685.0897-.01777.28764-.05001.44002-.07164.15237-.02162.34305-.05346.42371-.07076.0807-.01731.33001-.05934.55408-.09343.22408-.0341.50414-.08108.62235-.10439.24281-.04789.32338-.03343.32171.05774-.002.08203-.11879.53503-.20994.81082-.024.0726-.0528.17819-.064.23466-.0112.05646-.0416.16866-.0675.24932s-.0771.24566-.11371.36665c-.0366.121-.0868.28599-.11171.36665-.0411.13333-.0931.31539-.23464.82129-.0866.30966-.17862.61338-.21318.70396-.0185.04839-.0556.18039-.0825.29332-.098.41128-.18097.42674-1.1832.22065-.61471-.12641-.88876-.17665-.9636-.17665-.0432 0-.18515-.02488-.31532-.0553-.47757-.11159-1.212-.23072-1.6545-.26835-.20616-.01754-.42617-.04451-.48891-.05994-.18946-.0466-2.0869-.09274-2.4251-.05897-.16303.0163-.48711.03807-.72015.04842-.23304.01034-.62905.05126-.88001.09091-.25098.03965-.60298.09041-.78225.1128-.33525.04187-.56626.08204-1.0756.187-.16134.03325-.52801.10154-.81484.15175-.28682.05021-.61786.11658-.73566.14748-.24129.0633-.21753.06136-.31595.02578zm1.7148-6.3138c-.0673-.01624-.26406-.0554-.43719-.08698-.17311-.03159-.37771-.0692-.45466-.08358-.43158-.08067-1.2305-.21977-1.5-.26116-.48769-.07491-.68281-.14084-.72258-.24417-.0268-.06972-.0193-.10611.0364-.17604.0386-.04848.0702-.10011.0702-.11472 0-.01462.0573-.12524.12731-.24582.29409-.50649.46726-.87621.46726-.99761 0-.20145-.1665-.4247-.37168-.49834-.2742-.09842-.43693-.10444-.59274-.02193-.0749.03967-.14979.07214-.16634.07214-.0166 0-.0719.02938-.12293.06526-.24331.17102-2.233 1.2957-2.461 1.391-.10177.04257-.24012.11161-.30744.15342-.0673.0418-.18537.09517-.26231.11856-.0769.0234-.16393.06315-.19331.08837-.0294.02519-.22494.10254-.43461.17184-.20966.06931-.42958.14665-.4887.17187-.41997.17918-1.0581.29718-1.7163.31737-.51687.01584-.5863.01045-.90934-.07065-.59055-.14828-.70966-.19204-1.0813-.39726-.3277-.18098-.53789-.34634-.9078-.71417-.43101-.42859-1.037-1.2523-1.3598-1.8484-.06689-.12352-.15516-.28322-.19616-.35489-.04099-.07168-.17099-.35153-.28888-.62189-.11788-.27037-.24199-.55377-.2758-.62978-.0338-.07601-.07326-.17707-.08768-.22458s-.06874-.17188-.12071-.2764c-.05197-.10451-.15348-.37659-.22557-.60462s-.14711-.45346-.16672-.50097-.07421-.21753-.12135-.37783c-.09726-.33076-.09763-.49646-.0011-.51453.035-.0066.2396.07336.45467.17759.21507.10422.50122.23927.63587.30012.13465.06084.38647.17677.5596.25762.17312.08084.4092.18248.52462.22585.43642.16398.56164.2122.62954.24244.14372.064.35416.14552.48965.18968.07695.02507.22646.07951.33226.12097.31538.12357.64801.22278 1.2241.36509.1058.02614.27892.06925.38472.0958.34807.08736 1.0433.21416 1.4515.26474.70599.08749 1.1828.13677 1.5206.15718.20156.01219.44551.03681.54211.05473.27109.0503 2.999.09589 3.6699.06134.55079-.02836.77241-.05876 1.4022-.19225 1.0985-.23285 1.8675-.71771 2.1869-1.3787.20916-.43293.24166-.55167.286-1.0454.0321-.3567.0318-.53533-.001-.79464-.0444-.35219-.1242-.74784-.18592-.92186-.0202-.057-.0825-.25135-.13838-.43187-.0559-.18052-.11608-.35932-.13376-.39732-.0177-.038-.11416-.2479-.2144-.46642-.10026-.21853-.27711-.56834-.39304-.77737-.2081-.3752-.27635-.48204-.71448-1.1186-.39311-.57113-.52017-.84623-.67216-1.4553-.0542-.21708-.13201-.75649-.15953-1.1056-.0348-.4422.1104-1.5048.26687-1.9521.02-.05701.0496-.15677.0658-.22169s.0542-.16987.0843-.23321c.0302-.06334.0769-.1657.10385-.22745.1236-.28319.38665-.77913.47161-.88912.0516-.06681.14048-.19055.19754-.27498.23199-.34329 1.3421-1.3839 1.4763-1.3839.0186 0 .10298-.05172.1875-.11495.0845-.06321.23238-.15057.32855-.19411.0962-.04354.19848-.09297.22734-.10984.0289-.01687.076-.04022.10492-.05189.0289-.01167.11542-.04775.19237-.08019.0769-.03243.25793-.09459.4022-.1381s.30953-.09988.36724-.12524c.0577-.02537.19936-.05586.31477-.06779.11542-.01192.32329-.04375.46194-.07075.28962-.05638 1.169-.06393 1.4092-.01211.0865.01868.2773.04897.42386.06729.14656.01834.31182.0567.36723.08525.0554.02856.13193.052.17004.05213.0645.000197.28846.07763.57776.19975.22595.09538.43676.19046.48964.22085.0289.01658.0997.05338.15738.08178.12019.05914.17616.09328.40887.24928.0921.06176.18262.11229.2011.11229.0185 0 .0461.02025.0616.04498.0153.02474.0986.09859.18505.16411.25954.19682.55524.48386.78121.7583.11734.14252.22234.2669.23331.2764.0218.01881.27201.38928.33844.50097.0461.07737.33232.64887.4346.86753.0366.07809.0664.174.0664.21314s.0222.11517.0494.16896c.0763.15123.19642.56971.19653.68516 6e-5.05701.0234.24358.0518.4146.10158.61074.0608 1.351-.11221 2.0384-.17956.71331-.28196.90827-.97999 1.8657-.0831.11401-.16984.24616-.19271.29367-.0229.04751-.10973.20423-.19302.34828-.15754.27249-.51342 1.0091-.57455 1.1892-.0194.05701-.0562.15029-.082.2073-.0688.15238-.19231.56908-.35346 1.192-.0378.14613-.0639.42804-.0748.80705-.0149.521-.008.61763.0629.91557.11368.47553.30453.82453.62811 1.1486.14427.14447.30337.28439.35355.31095.4536.23999.73854.3765.78588.3765.0311 0 .10622.02165.16684.04813.11535.05038.54429.14837 1.107.25292.29287.05441.55402.06173 2.2034.06173 1.3497 0 1.9394-.01209 2.116-.04344.13465-.02388.46517-.05832.73447-.07652.47749-.03225.92106-.07649 1.3815-.13777.2035-.02708.49239-.07828 1.2766-.22624.13467-.02541.36287-.0797.50714-.12065.14428-.04096.34101-.09484.43719-.11976.4956-.12841.73625-.20758 1.2592-.41426.31461-.12433.58892-.22606.60958-.22606.0207 0 .0963-.03109.16808-.0691.0718-.038.14914-.0691.17191-.0691.0393 0 .31578-.12361 1.0613-.47453.72081-.33927 1.1749-.52945 1.2416-.52002.0581.0082.0695.03499.0669.15712-.002.08097-.02.18204-.0407.22457s-.10956.295-.19745.56103c-.0878.26604-.20047.59253-.2502.72555-.0498.13302-.10292.28072-.11823.32822-.0153.04751-.0871.21853-.15957.38005-.20348.45359-.22758.5099-.22758.53186 0 .01124-.0953.21101-.21178.44392-.37336.74654-.65285 1.2238-.9508 1.6237-.63427.85114-1.1881 1.3482-1.8993 1.7046-.41327.20712-.59888.27389-.97772.35169-.54855.11266-1.8918.0583-2.1734-.08795-.0357-.01858-.13555-.04532-.22175-.05945-.26043-.04265-1.0577-.34658-1.2947-.49353-.0673-.04176-.1355-.07597-.15152-.07603-.0546-.000243-.49502-.20249-.75782-.34803-.14427-.0799-.33313-.18362-.41969-.23049-.3109-.1683-.64895-.3674-.75196-.44286-.0578-.04228-.24657-.14996-.4197-.23931-.17311-.08935-.33838-.18238-.36723-.20674-.0289-.02437-.16107-.10064-.29381-.16952-.20968-.1088-.27301-.12523-.48264-.12523-.14326 0-.28145.02053-.34014.0505-.10219.05221-.21288.26528-.21193.40798.00051.09864.0965.37236.154.43981.041.04807.17224.28152.46277.82307.0644.12014.11718.24032.11718.26706 0 .1118-.43589.2649-.97928.34395-.67177.09773-1.0062.15459-1.2089.20554-.11416.0287-.38857.08449-.60979.124-.8389.14981-.88157.14874-1.0056-.02507-.0383-.05358-.22973-.41613-.42558-.80568-.19586-.38955-.37066-.73467-.38846-.76694s-.26954-.52979-.55944-1.1056c-.28989-.5758-.5674-1.1247-.61669-1.2197-.0493-.09501-.19082-.37486-.31449-.62189-.12368-.24703-.25039-.49579-.28158-.55279-.16311-.29813-.46508-.90278-.46587-.93284-.002-.0694-.3073-.36347-.43027-.41423-.27782-.11467-.55623-.0456-.72386.17958-.0578.07759-.80676 1.5268-1.6644 3.2205-1.499 2.96-1.5642 3.0814-1.6827 3.1303-.13434.05545-.30829.06042-.49947.01425zm-6.0942-5.8895c-1.2756-.06021-1.7937-.10774-2.8142-.25824-.77104-.1137-1.0962-.17189-1.4157-.25335-.15193-.03873-.34656-.08222-.43251-.09665-.16974-.02851-1.3068-.38533-1.3631-.42777-.01899-.01431-.08891-.04133-.15538-.06003-.24709-.06952-.681-.23327-.92273-.34822-.13716-.06523-.25887-.1186-.27045-.1186-.0396 0-.51567-.20639-1.1031-.47821-.32286-.1494-.77348-.35634-1.0014-.45987-.2279-.10352-.49206-.2436-.58702-.31129-.09496-.06768-.22259-.1514-.28363-.18603-.06105-.03463-.19312-.1168-.29351-.18261-.33547-.21991-1.4063-.88475-1.4251-.88475-.01018 0-.09992-.05468-.19943-.12151-.09951-.06682-.30524-.20231-.45717-.30107-.95073-.618-1.5689-1.2227-1.9059-1.8642-.04812-.09163-.10684-.18882-.13049-.21599s-.05203-.07904-.06306-.11526c-.01105-.03622-.06143-.16959-.11197-.29638-.05054-.12678-.11268-.31943-.13808-.4281-.02541-.10867-.06231-.25686-.08199-.32931-.04315-.15877-.04665-1.2964-.0045-1.4819.12956-.57074.18172-.72425.38478-1.1324.32743-.65817.76569-1.1591 1.397-1.5967.36336-.25187.37583-.25856.96499-.51749.07597-.03339.32458-.10811.55248-.16604.39747-.10104.44181-.10539 1.0877-.10663.59-.0011.71394.0081 1.0014.07512.18042.04203.377.09692.43685.12196.05984.02505.14531.04619.18992.04699.04461.000821.14326.02356.21923.05061.07597.02703.20804.06282.29351.07953.27512.05376.60264.13609.6632.1667.03241.01639.12564.03855.20718.04927.08154.01071.20265.03922.26912.06335.16764.06086.54221.17261.70787.21119.4478.10429.57546.13744.6299.16357.03339.01603.17724.06271.31968.10374.28858.08312.41237.12362.69127.22609.10482.03852.21189.07003.23793.07003s.11897.03124.20652.06942c.25428.11089.35938.15305.46994.18851.05698.01828.25898.09502.44889.17054.18992.07553.50846.20128.70787.27947.19942.07818.40919.16567.46616.19441.057.02874.1245.05233.15006.05245.0256.000111.0877.02116.13812.04678.0895.04547.59311.26991.83406.3717.0665.02807.1597.07008.20718.09334.60364.29567.94052.46498 1.2431.62478.19941.10531.4558.23854.56975.29607.11395.05753.32372.16428.46616.23723.14243.07294.39882.20268.56976.28829.17092.08561.41598.22469.54457.30906.22929.15044.29802.19129.63499.37745.0919.05078.19042.10586.21891.12241.0285.01655.13726.0772.24171.1348.34497.19022.64691.42928.92064.72893.14858.16263.30132.34515.33946.4056.0382.06044.15663.23288.26334.38318.28859.4065.52635.83152.77918 1.3929.26987.59922.33994.80296.4942 1.437.0955.39246.0973 1.104.004 1.4165-.18165.6058-.49639.97089-1.0639 1.2342-.18023.08361-.43879.17949-.57456.21306-1.1434.2827-2.236.34325-4.3732.24238z" fill="#000814" filter="url(#filter80)"/><path id="logo_wings" d="m119.55 62.758c1.2756-.06021 1.7936-.10774 2.8142-.25824.77104-.1137 1.0962-.17189 1.4157-.25335.15193-.03873.34656-.08222.43251-.09665.16974-.02852 1.3068-.38533 1.3631-.42777.019-.01431.0889-.04133.15538-.06003.24709-.06952.68099-.23327.92273-.34822.13716-.06523.25887-.1186.27045-.1186.0396 0 .51567-.20638 1.1031-.47821.32285-.1494.77347-.35634 1.0014-.45987.22789-.10352.49206-.24361.58702-.31129.095-.06769.22259-.1514.28362-.18603.0611-.03463.19312-.1168.29352-.18261.33546-.21991 1.4063-.88475 1.4251-.88475.0102 0 .1-.05468.19943-.12151.0995-.06683.30524-.20231.45717-.30107.95074-.618 1.5689-1.2227 1.9059-1.8642.0481-.09163.10684-.18882.13049-.21599.0236-.02717.052-.07904.0631-.11526.011-.03622.0614-.16959.11196-.29638.0506-.12678.11268-.31943.13808-.4281s.0623-.25686.082-.32931c.0431-.15878.0466-1.2964.005-1.4819-.12956-.57074-.18172-.72425-.38478-1.1324-.32743-.65818-.76569-1.1591-1.397-1.5967-.36336-.25187-.37583-.25856-.96499-.51749-.0759-.03339-.32458-.10811-.55249-.16604-.39746-.10104-.44181-.10539-1.0877-.10663-.59-.0011-.71394.0081-1.0014.07512-.18042.04203-.377.09691-.43685.12196-.0599.02504-.14531.04619-.18992.04699-.0446.00082-.14326.02357-.21923.05061-.0759.02704-.20804.06282-.2935.07953-.27513.05376-.60264.13609-.6632.1667-.0324.01639-.12564.03855-.20719.04927-.0816.01071-.20265.03922-.26911.06335-.16764.06086-.54221.17261-.70787.2112-.44781.10429-.57546.13744-.6299.16357-.0334.01603-.17725.0627-.31969.10374-.28858.08312-.41237.12362-.69127.22609-.10482.03852-.21189.07003-.23793.07003-.026 0-.11897.03124-.20652.06941-.25427.11089-.35937.15305-.46993.18852-.057.01828-.25898.09502-.4489.17054-.18991.07553-.50845.20128-.70786.27947-.19941.07818-.40919.16567-.46617.19441-.057.02874-.1245.05233-.15006.05245-.0255.000109-.0877.02116-.13811.04678-.0895.04547-.59311.26991-.83406.3717-.0664.02807-.1597.07008-.20718.09334-.60364.29567-.94052.46498-1.2431.62478-.19942.10531-.45579.23854-.56975.29607-.11395.05753-.32373.16428-.46615.23722-.14245.07294-.39883.20268-.56976.28829-.17092.08561-.41598.22469-.54457.30906-.2293.15044-.29801.19129-.63498.37745-.0919.05078-.19044.10586-.21892.12241-.0285.01655-.13726.0772-.24172.1348-.34496.19022-.6469.42928-.92064.72893-.14857.16263-.30131.34515-.33945.4056-.0382.06045-.15663.23288-.26334.38318-.2886.4065-.52635.83152-.7792 1.3929-.26985.59922-.33993.80296-.49418 1.437-.0955.39246-.0973 1.104-.004 1.4165.18166.6058.49638.97089 1.0639 1.2342.18025.08361.43881.17949.57457.21306 1.1434.2827 2.236.34325 4.3732.24238zm-10.463 17.706c-.0369-.0147-.13501-.09114-.21817-.16987-.20563-.19464-.32953-.28496-.44-.32075-.0511-.01659-.16665-.06385-.25665-.10505-.09-.04119-.23727-.10309-.32726-.13755-.09-.03446-.21272-.08343-.27271-.10882-.06-.0254-.26607-.1126-.45793-.19377l-.34884-.14759-.96839-.95452c-.80779-.79621-.9693-.96794-.97385-1.0355-.005-.07182.007-.08513.10363-.118.06-.02036.19499-.05461.29998-.07607.105-.02147.30136-.06399.43635-.0945.13501-.0305.32523-.07271.42272-.09375.0975-.02103.28772-.06373.42271-.09485.35237-.08122.87758-.17191 1.4226-.24564.63561-.08598 2.0024-.09401 2.4773-.01455.11999.02008.32248.04428.44998.05378.12749.0095.26862.02872.31363.04268.045.01397.16158.03764.25908.05259s.22636.03932.28635.05414c.06.01483.23181.05231.38181.0833.15.03101.32795.07004.39545.08677.0674.01675.20249.04673.29998.06666.0975.01992.24477.05003.32727.06687.27601.05636.53149.14618.53948.18969.0101.05433-1.9459 1.9755-2.0854 2.0484-.0573.02991-.23576.10852-.3968.17474-.16103.06621-.31443.13256-.34089.14745-.0265.01489-.12789.05898-.22539.09799s-.23249.09566-.29998.12587c-.0674.03022-.14728.06512-.17727.07757-.3016.1252-.38988.17919-.55736.34088-.21965.21206-.34054.26159-.4914.20136zm-5.958-5.5859c-.0862-.03117-.1157-.0922-.22627-.46824-.045-.15326-.10175-.34465-.12595-.42531-.0723-.24074-.17748-.60514-.22446-.77729-.0242-.08873-.0593-.20092-.0778-.24932-.0186-.04839-.0485-.14739-.0662-.21999-.0179-.0726-.0635-.23759-.10141-.36665-.038-.12906-.0826-.29163-.0992-.36128-.0166-.06964-.0386-.13882-.0489-.15374-.0268-.03899-.24433-.80277-.28623-1.0049-.0374-.18016-.009-.27458.0801-.26405.0244.0028.21304.03364.4192.06834.20615.03469.46058.07394.56541.08721.10482.01327.28816.04438.40742.06912.31286.06493.95263.16669 1.048.16668.0448-2e-6.15348.01966.24148.04368s.22101.04369.29558.04369c.0745 0 .2079.01913.2963.04255.0883.0234.28266.05613.43168.07274.14902.0166.28611.03863.30467.04895.0186.01032.26329.03739.54388.06016.2806.02276.64217.05755.80351.07729.32509.03978.21532-.01929 1.1493.61856.13873.09475.30358.2026.36632.23967.0627.03706.15669.10144.20878.14304.1568.12525.2328.10348.65973-.18903.21249-.14557.55752-.38106.76675-.5233l.38043-.25862.33663-.04968c.18514-.02732.5018-.06173.70367-.07647s.37787-.03282.39112-.04018c.0132-.0074.19274-.02829.39889-.04653.47091-.04165.87782-.1039 1.5482-.23685.0897-.01777.28764-.05001.44002-.07164.15237-.02162.34305-.05346.42371-.07076.0807-.01731.33001-.05934.55408-.09343.22408-.0341.50414-.08108.62235-.10439.24281-.04789.32338-.03343.32171.05774-.002.08203-.11879.53503-.20994.81082-.024.0726-.0528.17819-.064.23466-.0112.05646-.0416.16866-.0675.24932s-.0771.24566-.11371.36665c-.0366.121-.0868.28599-.11171.36665-.0411.13333-.0931.31539-.23464.82129-.0866.30966-.17862.61338-.21318.70396-.0185.04839-.0556.18039-.0825.29332-.098.41128-.18097.42674-1.1832.22065-.61471-.12641-.88876-.17665-.9636-.17665-.0432 0-.18515-.02488-.31532-.0553-.47757-.11159-1.212-.23072-1.6545-.26835-.20616-.01754-.42617-.04451-.48891-.05994-.18946-.0466-2.0869-.09274-2.4251-.05897-.16303.0163-.48711.03807-.72015.04842-.23304.01034-.62905.05126-.88001.09091-.25098.03965-.60298.09041-.78225.1128-.33525.04187-.56626.08204-1.0756.187-.16134.03325-.52801.10154-.81484.15175-.28682.05021-.61786.11658-.73566.14748-.24129.0633-.21753.06136-.31595.02578zm1.7148-6.3138c-.0673-.01624-.26406-.0554-.43719-.08698-.17311-.03159-.37771-.0692-.45466-.08358-.43158-.08067-1.2305-.21977-1.5-.26116-.48769-.07491-.68281-.14084-.72258-.24417-.0268-.06972-.0193-.10611.0364-.17604.0386-.04848.0702-.10011.0702-.11472 0-.01462.0573-.12524.12731-.24582.29409-.50649.46726-.87621.46726-.99761 0-.20145-.1665-.4247-.37168-.49834-.2742-.09842-.43693-.10444-.59274-.02193-.0749.03967-.14979.07214-.16634.07214-.0166 0-.0719.02938-.12293.06526-.24331.17102-2.233 1.2957-2.461 1.391-.10177.04257-.24012.11161-.30744.15342-.0673.0418-.18537.09517-.26231.11856-.0769.0234-.16393.06315-.19331.08837-.0294.02519-.22494.10254-.43461.17184-.20966.06931-.42958.14665-.4887.17187-.41997.17918-1.0581.29718-1.7163.31737-.51687.01584-.5863.01045-.90934-.07065-.59055-.14828-.70966-.19204-1.0813-.39726-.3277-.18098-.53789-.34634-.9078-.71417-.43101-.42859-1.037-1.2523-1.3598-1.8484-.06689-.12352-.15516-.28322-.19616-.35489-.04099-.07168-.17099-.35153-.28888-.62189-.11788-.27037-.24199-.55377-.2758-.62978-.0338-.07601-.07326-.17707-.08768-.22458s-.06874-.17188-.12071-.2764c-.05197-.10451-.15348-.37659-.22557-.60462s-.14711-.45346-.16672-.50097-.07421-.21753-.12135-.37783c-.09726-.33076-.09763-.49646-.0011-.51453.035-.0066.2396.07336.45467.17759.21507.10422.50122.23927.63587.30012.13465.06084.38647.17677.5596.25762.17312.08084.4092.18248.52462.22585.43642.16398.56164.2122.62954.24244.14372.064.35416.14552.48965.18968.07695.02507.22646.07951.33226.12097.31538.12357.64801.22278 1.2241.36509.1058.02614.27892.06925.38472.0958.34807.08736 1.0433.21416 1.4515.26474.70599.08749 1.1828.13677 1.5206.15718.20156.01219.44551.03681.54211.05473.27109.0503 2.999.09589 3.6699.06134.55079-.02836.77241-.05876 1.4022-.19225 1.0985-.23285 1.8675-.71771 2.1869-1.3787.20916-.43293.24166-.55167.286-1.0454.0321-.3567.0318-.53533-.001-.79464-.0444-.35219-.1242-.74784-.18592-.92186-.0202-.057-.0825-.25135-.13838-.43187-.0559-.18052-.11608-.35932-.13376-.39732-.0177-.038-.11416-.2479-.2144-.46642-.10026-.21853-.27711-.56834-.39304-.77737-.2081-.3752-.27635-.48204-.71448-1.1186-.39311-.57113-.52017-.84623-.67216-1.4553-.0542-.21708-.13201-.75649-.15953-1.1056-.0348-.4422.1104-1.5048.26687-1.9521.02-.05701.0496-.15677.0658-.22169s.0542-.16987.0843-.23321c.0302-.06334.0769-.1657.10385-.22745.1236-.28319.38665-.77913.47161-.88912.0516-.06681.14048-.19055.19754-.27498.23199-.34329 1.3421-1.3839 1.4763-1.3839.0186 0 .10298-.05172.1875-.11495.0845-.06321.23238-.15057.32855-.19411.0962-.04354.19848-.09297.22734-.10984.0289-.01687.076-.04022.10492-.05189.0289-.01167.11542-.04775.19237-.08019.0769-.03243.25793-.09459.4022-.1381s.30953-.09988.36724-.12524c.0577-.02537.19936-.05586.31477-.06779.11542-.01192.32329-.04375.46194-.07075.28962-.05638 1.169-.06393 1.4092-.01211.0865.01868.2773.04897.42386.06729.14656.01834.31182.0567.36723.08525.0554.02856.13193.052.17004.05213.0645.000197.28846.07763.57776.19975.22595.09538.43676.19046.48964.22085.0289.01658.0997.05338.15738.08178.12019.05914.17616.09328.40887.24928.0921.06176.18262.11229.2011.11229.0185 0 .0461.02025.0616.04498.0153.02474.0986.09859.18505.16411.25954.19682.55524.48386.78121.7583.11734.14252.22234.2669.23331.2764.0218.01881.27201.38928.33844.50097.0461.07737.33232.64887.4346.86753.0366.07809.0664.174.0664.21314s.0222.11517.0494.16896c.0763.15123.19642.56971.19653.68516 6e-5.05701.0234.24358.0518.4146.10158.61074.0608 1.351-.11221 2.0384-.17956.71331-.28196.90827-.97999 1.8657-.0831.11401-.16984.24616-.19271.29367-.0229.04751-.10973.20423-.19302.34828-.15754.27249-.51342 1.0091-.57455 1.1892-.0194.05701-.0562.15029-.082.2073-.0688.15238-.19231.56908-.35346 1.192-.0378.14613-.0639.42804-.0748.80705-.0149.521-.008.61763.0629.91557.11368.47553.30453.82453.62811 1.1486.14427.14447.30337.28439.35355.31095.4536.23999.73854.3765.78588.3765.0311 0 .10622.02165.16684.04813.11535.05038.54429.14837 1.107.25292.29287.05441.55402.06173 2.2034.06173 1.3497 0 1.9394-.01209 2.116-.04344.13465-.02388.46517-.05832.73447-.07652.47749-.03225.92106-.07649 1.3815-.13777.2035-.02708.49239-.07828 1.2766-.22624.13467-.02541.36287-.0797.50714-.12065.14428-.04096.34101-.09484.43719-.11976.4956-.12841.73625-.20758 1.2592-.41426.31461-.12433.58892-.22606.60958-.22606.0207 0 .0963-.03109.16808-.0691.0718-.038.14914-.0691.17191-.0691.0393 0 .31578-.12361 1.0613-.47453.72081-.33927 1.1749-.52945 1.2416-.52002.0581.0082.0695.03499.0669.15712-.002.08097-.02.18204-.0407.22457s-.10956.295-.19745.56103c-.0878.26604-.20047.59253-.2502.72555-.0498.13302-.10292.28072-.11823.32822-.0153.04751-.0871.21853-.15957.38005-.20348.45359-.22758.5099-.22758.53186 0 .01124-.0953.21101-.21178.44392-.37336.74654-.65285 1.2238-.9508 1.6237-.63427.85114-1.1881 1.3482-1.8993 1.7046-.41327.20712-.59888.27389-.97772.35169-.54855.11266-1.8918.0583-2.1734-.08795-.0357-.01858-.13555-.04532-.22175-.05945-.26043-.04265-1.0577-.34658-1.2947-.49353-.0673-.04176-.1355-.07597-.15152-.07603-.0546-.000243-.49502-.20249-.75782-.34803-.14427-.0799-.33313-.18362-.41969-.23049-.3109-.1683-.64895-.3674-.75196-.44286-.0578-.04228-.24657-.14996-.4197-.23931-.17311-.08935-.33838-.18238-.36723-.20674-.0289-.02437-.16107-.10064-.29381-.16952-.20968-.1088-.27301-.12523-.48264-.12523-.14326 0-.28145.02053-.34014.0505-.10219.05221-.21288.26528-.21193.40798.00051.09864.0965.37236.154.43981.041.04807.17224.28152.46277.82307.0644.12014.11718.24032.11718.26706 0 .1118-.43589.2649-.97928.34395-.67177.09773-1.0062.15459-1.2089.20554-.11416.0287-.38857.08449-.60979.124-.8389.14981-.88157.14874-1.0056-.02507-.0383-.05358-.22973-.41613-.42558-.80568-.19586-.38955-.37066-.73467-.38846-.76694s-.26954-.52979-.55944-1.1056c-.28989-.5758-.5674-1.1247-.61669-1.2197-.0493-.09501-.19082-.37486-.31449-.62189-.12368-.24703-.25039-.49579-.28158-.55279-.16311-.29813-.46508-.90278-.46587-.93284-.002-.0694-.3073-.36347-.43027-.41423-.27782-.11467-.55623-.0456-.72386.17958-.0578.07759-.80676 1.5268-1.6644 3.2205-1.499 2.96-1.5642 3.0814-1.6827 3.1303-.13434.05545-.30829.06042-.49947.01425zm-6.0942-5.8895c-1.2756-.06021-1.7937-.10774-2.8142-.25824-.77104-.1137-1.0962-.17189-1.4157-.25335-.15193-.03873-.34656-.08222-.43251-.09665-.16974-.02851-1.3068-.38533-1.3631-.42777-.01899-.01431-.08891-.04133-.15538-.06003-.24709-.06952-.681-.23327-.92273-.34822-.13716-.06523-.25887-.1186-.27045-.1186-.0396 0-.51567-.20639-1.1031-.47821-.32286-.1494-.77348-.35634-1.0014-.45987-.2279-.10352-.49206-.2436-.58702-.31129-.09496-.06768-.22259-.1514-.28363-.18603-.06105-.03463-.19312-.1168-.29351-.18261-.33547-.21991-1.4063-.88475-1.4251-.88475-.01018 0-.09992-.05468-.19943-.12151-.09951-.06682-.30524-.20231-.45717-.30107-.95073-.618-1.5689-1.2227-1.9059-1.8642-.04812-.09163-.10684-.18882-.13049-.21599s-.05203-.07904-.06306-.11526c-.01105-.03622-.06143-.16959-.11197-.29638-.05054-.12678-.11268-.31943-.13808-.4281-.02541-.10867-.06231-.25686-.08199-.32931-.04315-.15877-.04665-1.2964-.0045-1.4819.12956-.57074.18172-.72425.38478-1.1324.32743-.65817.76569-1.1591 1.397-1.5967.36336-.25187.37583-.25856.96499-.51749.07597-.03339.32458-.10811.55248-.16604.39747-.10104.44181-.10539 1.0877-.10663.59-.0011.71394.0081 1.0014.07512.18042.04203.377.09692.43685.12196.05984.02505.14531.04619.18992.04699.04461.000821.14326.02356.21923.05061.07597.02703.20804.06282.29351.07953.27512.05376.60264.13609.6632.1667.03241.01639.12564.03855.20718.04927.08154.01071.20265.03922.26912.06335.16764.06086.54221.17261.70787.21119.4478.10429.57546.13744.6299.16357.03339.01603.17724.06271.31968.10374.28858.08312.41237.12362.69127.22609.10482.03852.21189.07003.23793.07003s.11897.03124.20652.06942c.25428.11089.35938.15305.46994.18851.05698.01828.25898.09502.44889.17054.18992.07553.50846.20128.70787.27947.19942.07818.40919.16567.46616.19441.057.02874.1245.05233.15006.05245.0256.000111.0877.02116.13812.04678.0895.04547.59311.26991.83406.3717.0665.02807.1597.07008.20718.09334.60364.29567.94052.46498 1.2431.62478.19941.10531.4558.23854.56975.29607.11395.05753.32372.16428.46616.23723.14243.07294.39882.20268.56976.28829.17092.08561.41598.22469.54457.30906.22929.15044.29802.19129.63499.37745.0919.05078.19042.10586.21891.12241.0285.01655.13726.0772.24171.1348.34497.19022.64691.42928.92064.72893.14858.16263.30132.34515.33946.4056.0382.06044.15663.23288.26334.38318.28859.4065.52635.83152.77918 1.3929.26987.59922.33994.80296.4942 1.437.0955.39246.0973 1.104.004 1.4165-.18165.6058-.49639.97089-1.0639 1.2342-.18023.08361-.43879.17949-.57456.21306-1.1434.2827-2.236.34325-4.3732.24238z" fill="url(#radialGradient4)"/><g><path d="m108.79 71.153c-.10799-.06592-.32487-.2192-.48196-.34062-.15707-.12142-.40609-.30316-.55335-.40387-.14727-.1007-.29577-.20879-.33003-.24018-.0342-.03138-.17573-.14544-.31439-.25344-.895-.69702-.98707-.84166-.84094-1.3209.0382-.12513 1.2027-2.5085 1.3868-2.8382.0219-.03928.25233-.49359.51203-1.0096.25969-.51601.51365-.99258.56435-1.0591.13354-.17508.39062-.25544.63199-.19754.0986.02367.22439.08091.27939.1272.0688.05784.4868.85839 1.3367 2.5597 1.1079 2.2178 1.2366 2.4933 1.2366 2.6464 0 .26458-.0813.38794-.44176.6708-.17918.1406-.33383.26539-.34365.27732-.0101.01193-.12227.10038-.2499.19656s-.4891.36908-.80326.60644c-.89243.67428-.89135.67364-1.1602.68716-.21098.01061-.2499.000628-.42841-.10819z" fill="#980de5" filter="url(#filter81)"/><path id="logo_diamond" d="m108.79 71.153c-.10799-.06592-.32487-.2192-.48196-.34062-.15707-.12142-.40609-.30316-.55335-.40387-.14727-.1007-.29577-.20879-.33003-.24018-.0342-.03138-.17573-.14544-.31439-.25344-.895-.69702-.98707-.84166-.84094-1.3209.0382-.12513 1.2027-2.5085 1.3868-2.8382.0219-.03928.25233-.49359.51203-1.0096.25969-.51601.51365-.99258.56435-1.0591.13354-.17508.39062-.25544.63199-.19754.0986.02367.22439.08091.27939.1272.0688.05784.4868.85839 1.3367 2.5597 1.1079 2.2178 1.2366 2.4933 1.2366 2.6464 0 .26458-.0813.38794-.44176.6708-.17918.1406-.33383.26539-.34365.27732-.0101.01193-.12227.10038-.2499.19656s-.4891.36908-.80326.60644c-.89243.67428-.89135.67364-1.1602.68716-.21098.01061-.2499.000628-.42841-.10819z" fill="url(#radialGradient9)"/><path id="logo_face" d="m109.87 58.483c.4622-.05717 1.1376-.23694 1.3872-.36926.0337-.01789.14578-.06636.24894-.10771.10318-.04136.38174-.20324.61904-.35977 1.1922-.7864 2.0107-2.0414 2.2781-3.4931.0552-.29958.0756-1.039.0388-1.3983-.0557-.54248-.21514-1.1668-.3961-1.5518-.0441-.09379-.0966-.2089-.11669-.2558-.0201-.0469-.0694-.13898-.10959-.20464-.0402-.06566-.0902-.15007-.111-.18758-.0787-.14131-.177-.27996-.35982-.50703-.1037-.1288-.20907-.26231-.23418-.29669-.0251-.03438-.20161-.20209-.39222-.3727-.4011-.35898-.3932-.35252-.50221-.41-.0457-.0241-.0908-.05304-.10016-.0643-.0442-.05313-.24645-.17161-.49455-.28979-.56601-.26962-.76813-.35083-.95179-.38243-.0733-.01261-.17306-.0437-.22169-.06907-.0487-.02538-.15431-.04624-.23483-.04635-.0805-.000115-.26401-.0245-.40777-.0542-.41294-.0853-1.3599-.02121-1.8503.12521-.12193.03641-.24764.06596-.27937.06569-.0317-.000271-.0664.01367-.0771.03099s-.0686.04227-.12855.05544c-.11404.02505-.20658.06668-.65751.2958-.47308.24038-.80902.48316-1.1984.8661-.35059.34475-.66034.69325-.66034.74294 0 .01166-.0504.09394-.11196.18285-.15975.23065-.48456.90399-.57156 1.1848-.0407.13131-.0887.28479-.10654.34106-.018.05627-.0623.30184-.0986.5457-.15626 1.0496-.0228 1.9919.4167 2.9437.072.15586.13089.29101.13089.30032 0 .04873.38512.61588.60077.88476.5837.72774 1.4673 1.3275 2.4006 1.6296.44327.14345.52003.16143.88677.20759.45251.05697.99285.06411 1.3651.01806z" fill="#d6e6ee" stroke="#221e7e" stroke-opacity=".41569" stroke-width=".13229"/><path d="m109.87 58.483c.4622-.05717 1.1376-.23694 1.3872-.36926.0337-.01789.14578-.06636.24894-.10771.10318-.04136.38174-.20324.61904-.35977 1.1922-.7864 2.0107-2.0414 2.2781-3.4931.0552-.29958.0756-1.039.0388-1.3983-.0557-.54248-.21514-1.1668-.3961-1.5518-.0441-.09379-.0966-.2089-.11669-.2558-.0201-.0469-.0694-.13898-.10959-.20464-.0402-.06566-.0902-.15007-.111-.18758-.0787-.14131-.177-.27996-.35982-.50703-.1037-.1288-.20907-.26231-.23418-.29669-.0251-.03438-.20161-.20209-.39222-.3727-.4011-.35898-.3932-.35252-.50221-.41-.0457-.0241-.0908-.05304-.10016-.0643-.0442-.05313-.24645-.17161-.49455-.28979-.56601-.26962-.76813-.35083-.95179-.38243-.0733-.01261-.17306-.0437-.22169-.06907-.0487-.02538-.15431-.04624-.23483-.04635-.0805-.000115-.26401-.0245-.40777-.0542-.41294-.0853-1.3599-.02121-1.8503.12521-.12193.03641-.24764.06596-.27937.06569-.0317-.000271-.0664.01367-.0771.03099s-.0686.04227-.12855.05544c-.11404.02505-.20658.06668-.65751.2958-.47308.24038-.80902.48316-1.1984.8661-.35059.34475-.66034.69325-.66034.74294 0 .01166-.0504.09394-.11196.18285-.15975.23065-.48456.90399-.57156 1.1848-.0407.13131-.0887.28479-.10654.34106-.018.05627-.0623.30184-.0986.5457-.15626 1.0496-.0228 1.9919.4167 2.9437.072.15586.13089.29101.13089.30032 0 .04873.38512.61588.60077.88476.5837.72774 1.4673 1.3275 2.4006 1.6296.44327.14345.52003.16143.88677.20759.45251.05697.99285.06411 1.3651.01806z" fill="url(#radialGradient87)" stroke="#221e7e" stroke-opacity=".41569" stroke-width=".13229"/><path id="logo_eyes" d="m111.67 54.166c-.27001-.02724-.5989-.26711-.76166-.55551-.28396-.50315-.28952-1.1282-.0154-1.7275.10183-.22255.37367-.5572.55094-.67822.23182-.15825.59133-.26689.78329-.2367.90154.14177 1.2736 1.2657.76415 2.3086-.27978.57281-.82455.93946-1.3214.88934zm-5.2658-.05057c-.33901-.14674-.42878-.2017-.57489-.35199-.15118-.1555-.32634-.46325-.48179-.84648-.0475-.11696-.0612-.24897-.0583-.55956.003-.36955.014-.43083.11547-.67456.40869-.98175 1.5827-.93208 2.155.09116.1606.28717.19193.38883.23458.76108.078.67994-.20277 1.3006-.69304 1.5326-.20906.09891-.52838.12079-.69708.04777z" fill="url(#linearGradient80)" fill-rule="evenodd"/></g></g></svg>
